<svg width="26" height="32" viewBox="0 0 26 32" fill="none" xmlns="http://www.w3.org/2000/svg">
<path d="M11.674 0.0339832C11.0111 0.102776 9.99802 0.265375 9.39765 0.40296C4.51966 1.51614 1.08631 4.90572 0.154487 9.50854C-0.0393814 10.4591 -0.0518891 12.6605 0.123218 13.4985C0.673555 16.0876 2.09943 18.2577 3.83174 19.1645C4.48839 19.5084 4.68852 19.4459 4.87613 18.8455C5.04498 18.3264 5.42021 16.7692 5.42021 16.6066C5.42021 16.5191 5.27012 16.2564 5.07625 15.9938C3.05627 13.2984 3.3502 9.37096 5.77668 6.48169C7.00869 5.02454 8.89734 3.9739 11.0174 3.57991C11.8867 3.41731 13.9379 3.41731 14.8322 3.57991C17.7903 4.11773 19.9041 5.87506 20.8609 8.57672C21.2424 9.65863 21.33 10.259 21.33 11.7161C21.3362 12.8356 21.3112 13.1358 21.1924 13.7361C20.6295 16.5316 19.1161 18.7517 17.1587 19.6585C16.2018 20.1025 15.0011 20.2464 14.1506 20.0275C13.0249 19.7398 12.1806 18.8643 11.9805 17.7824C11.8679 17.182 11.968 16.738 12.7372 14.3115C13.6252 11.5098 13.8191 10.5717 13.6815 9.67739C13.594 9.12706 13.3376 8.54545 13.0249 8.20149C12.5621 7.68867 11.6991 7.38224 10.9111 7.45728C9.66657 7.56985 8.55338 8.39536 7.95927 9.63362C7.56528 10.4529 7.47773 10.8656 7.4402 11.9663C7.40268 13.0357 7.49023 13.6611 7.80292 14.5741L7.98429 15.1182L6.77104 20.0525C6.10188 22.7667 5.52028 25.1681 5.48275 25.387C5.37018 26.0624 5.33891 27.7322 5.41396 28.7891C5.50151 29.9836 5.7204 31.7472 5.80795 31.9035C5.84547 31.9786 5.92052 32.0098 6.03309 31.9973C6.17067 31.9848 6.2895 31.8472 6.66473 31.2906C7.75915 29.6459 8.80979 27.7072 9.25381 26.5065C9.37264 26.1813 9.76037 24.8554 10.1168 23.5609L10.7547 21.2157L11.23 21.691C12.8498 23.3233 15.6515 23.7485 18.5533 22.8104C20.0354 22.3289 21.2549 21.5597 22.4619 20.3527C23.5876 19.2207 24.2568 18.2389 24.8946 16.7755C25.7014 14.9431 26.0391 13.1045 25.9766 10.9094C25.939 9.53356 25.8452 8.95195 25.4888 7.87629C24.1004 3.64245 20.098 0.621843 15.1449 0.0527458C14.6259 -0.00354004 12.1806 -0.0223007 11.674 0.0339832Z" fill="#3E8847"/>
</svg>
