<svg width="20" height="20" viewBox="0 0 20 20" fill="none" xmlns="http://www.w3.org/2000/svg">
<path fill-rule="evenodd" clip-rule="evenodd" d="M7.87651 13.2065C4.03251 13.2065 0.749512 13.7875 0.749512 16.1155C0.749512 18.4435 4.01251 19.0455 7.87651 19.0455C11.7215 19.0455 15.0035 18.4635 15.0035 16.1365C15.0035 13.8095 11.7415 13.2065 7.87651 13.2065Z" stroke="#09270D" stroke-width="1.5" stroke-linecap="round" stroke-linejoin="round"/>
<path fill-rule="evenodd" clip-rule="evenodd" d="M7.8766 9.886C10.3996 9.886 12.4446 7.841 12.4446 5.318C12.4446 2.795 10.3996 0.75 7.8766 0.75C5.3546 0.75 3.3096 2.795 3.3096 5.318C3.3006 7.832 5.3306 9.877 7.8456 9.886H7.8766Z" stroke="#09270D" stroke-width="1.5" stroke-linecap="round" stroke-linejoin="round"/>
<path d="M17.2036 6.66943V10.6794" stroke="#09270D" stroke-width="1.5" stroke-linecap="round" stroke-linejoin="round"/>
<path d="M19.2497 8.67432H15.1597" stroke="#09270D" stroke-width="1.5" stroke-linecap="round" stroke-linejoin="round"/>
</svg>