<svg width="49" height="39" viewBox="0 0 49 39" fill="none" xmlns="http://www.w3.org/2000/svg">
<path d="M12.1352 38.7592C9.88087 38.7592 8.03642 38.2981 6.60185 37.3759C5.16729 36.4537 3.98889 35.2753 3.06667 33.8407C2.04198 32.0987 1.32469 30.3055 0.914816 28.4611C0.607409 26.5142 0.453705 24.9259 0.453705 23.6963C0.453705 18.6753 1.73457 14.1154 4.2963 10.0167C6.85803 5.91789 10.8543 2.58764 16.2852 0.0259045L17.6685 2.79257C14.492 4.12467 11.7253 6.22529 9.36852 9.09443C7.1142 11.9636 5.98704 14.8839 5.98704 17.8555C5.98704 19.0852 6.14074 20.1611 6.44815 21.0833C8.08766 19.7512 9.98334 19.0852 12.1352 19.0852C14.7994 19.0852 17.1049 19.9562 19.0519 21.6981C20.9988 23.4401 21.9722 25.8481 21.9722 28.9222C21.9722 31.7913 20.9988 34.1481 19.0519 35.9926C17.1049 37.837 14.7994 38.7592 12.1352 38.7592ZM38.2648 38.7592C36.0105 38.7592 34.1661 38.2981 32.7315 37.3759C31.2969 36.4537 30.1185 35.2753 29.1963 33.8407C28.1716 32.0987 27.4543 30.3055 27.0445 28.4611C26.737 26.5142 26.5833 24.9259 26.5833 23.6963C26.5833 18.6753 27.8642 14.1154 30.4259 10.0167C32.9877 5.91789 36.984 2.58764 42.4148 0.0259045L43.7982 2.79257C40.6216 4.12467 37.8549 6.22529 35.4982 9.09443C33.2438 11.9636 32.1167 14.8839 32.1167 17.8555C32.1167 19.0852 32.2704 20.1611 32.5778 21.0833C34.2173 19.7512 36.113 19.0852 38.2648 19.0852C40.929 19.0852 43.2346 19.9562 45.1815 21.6981C47.1284 23.4401 48.1019 25.8481 48.1019 28.9222C48.1019 31.7913 47.1284 34.1481 45.1815 35.9926C43.2346 37.837 40.929 38.7592 38.2648 38.7592Z" fill="white"/>
</svg>
