<svg width="105" height="105" viewBox="0 0 105 105" fill="none" xmlns="http://www.w3.org/2000/svg">
<circle cx="52.5" cy="52.5" r="52.5" fill="#3E8847"/>
<path d="M40.6052 28.2115C39.5521 28.6519 38.9202 29.2168 38.499 30.0976L38.2883 30.538L37.3692 30.5763C36.5746 30.6146 36.3736 30.6624 35.8087 30.9401C34.9949 31.3422 34.3248 32.0124 33.9131 32.8357C33.6163 33.4484 33.5971 33.5346 33.5971 34.5399C33.5971 35.5355 33.6163 35.6313 33.9035 36.2153C34.0758 36.56 34.2673 36.9046 34.3343 37.0004C34.4301 37.1248 34.4013 37.2205 34.1907 37.5365C33.4631 38.6471 33.3386 40.2076 33.9035 41.4043C34.0758 41.7586 34.4109 42.266 34.6598 42.5341C35.4066 43.3383 36.7374 43.8552 37.7809 43.7595L38.2405 43.7116L38.5468 44.2765C38.7096 44.5829 39.0734 45.052 39.3606 45.3105C39.8585 45.77 39.868 45.7796 39.868 46.3157V46.8614L39.4659 46.5072C38.9777 46.0572 37.8958 45.5498 37.149 45.4158C36.8331 45.3583 36.1629 45.3105 35.6555 45.3105C34.5545 45.3105 34.028 45.5211 33.7312 46.0764C33.5014 46.5072 33.4823 48.3071 33.6929 49.2262C34.0854 50.8729 35.3204 52.242 36.9576 52.8451C37.4746 53.0366 37.8671 53.094 38.7479 53.1419L39.868 53.1898V53.7451V54.3099H39.0542C38.2979 54.3099 38.2117 54.3291 37.982 54.5588C37.7809 54.7599 37.7522 54.8652 37.8001 55.1524C37.915 55.88 37.5416 55.8417 44.2816 55.8417H50.3035L50.6099 56.1098C50.9833 56.4545 50.9833 56.3683 50.5429 59.4894C50.361 60.8106 50.2078 61.9307 50.2078 61.969C50.2078 62.0073 49.6334 62.0648 48.9441 62.0839C47.7952 62.1126 47.6324 62.1413 47.2399 62.352C46.407 62.8211 45.9187 63.7593 46.024 64.6976C46.0527 64.9561 46.6463 67.0815 47.3261 69.4175C48.542 73.5343 48.5707 73.6683 48.4749 74.1278C48.3601 74.664 48.0441 75.1044 47.5846 75.3533C47.3165 75.4969 46.7995 75.516 41.6871 75.516H36.0863L35.7321 75.2959C35.0141 74.8459 35.0907 75.2384 33.7407 65.5975C33.0514 60.734 32.4961 56.6747 32.4961 56.5789C32.4961 56.4832 32.6206 56.2726 32.7738 56.1194C33.0514 55.8417 33.061 55.8417 34.2673 55.8417C35.4162 55.8417 35.4832 55.8322 35.7034 55.6024C36.0193 55.296 36.0193 54.8556 35.7034 54.5397C35.4545 54.2908 35.4449 54.2908 34.0471 54.3291C32.9078 54.3578 32.5727 54.3961 32.3047 54.5397C31.5579 54.9322 31.0888 55.6024 31.0026 56.397C30.9643 56.6938 31.3664 59.8245 32.2089 65.7986C33.5588 75.3916 33.5397 75.3054 34.2003 76.0522C34.363 76.2341 34.7269 76.5117 35.0045 76.6745L35.5119 76.9521L41.5339 76.9809C48.3409 77.0096 48.1111 77.0287 48.9441 76.282L49.4132 75.8607L49.6908 76.1479C49.844 76.3107 50.227 76.5596 50.5429 76.7224L51.1173 77L59.8296 76.9809L68.5418 76.9521L69.0492 76.6745C69.6141 76.3586 70.0257 75.9373 70.3034 75.3916C70.5523 74.9129 73.3957 65.1954 73.4532 64.6497C73.5393 63.7498 73.0415 62.8115 72.2277 62.352L71.7969 62.1126L68.2833 62.0839L64.7601 62.0552L65.3441 60.8872C66.9621 57.6703 68.1588 53.4866 68.446 50.0304C68.5131 49.2741 68.5131 49.2453 68.2737 49.006C67.9578 48.6901 67.5174 48.6805 67.211 48.9773C67.0387 49.1496 66.9717 49.3506 66.9238 49.8676C66.56 53.4674 65.4303 57.3448 63.841 60.4372C63.0751 61.9307 62.9794 62.0648 62.6921 62.0648C62.5102 62.0648 62.4624 62.0265 62.5007 61.8924C62.9028 60.5904 63.3144 57.8044 63.4006 55.7843C63.4772 54.128 63.4006 51.4473 63.2379 50.3368C63.1421 49.6857 63.1517 49.657 63.4868 48.9007C64.1569 47.4072 65.2579 45.5594 66.2823 44.2095L66.7132 43.6446L66.7802 43.9701C66.8185 44.152 66.8951 44.7935 66.9525 45.3966C67.0387 46.3062 67.0866 46.5264 67.2685 46.7178C67.6323 47.1104 68.3024 46.9763 68.4748 46.4785C68.6471 45.9711 68.3024 43.1276 68.0056 42.6394C67.6227 42.0075 66.7706 41.7777 66.1196 42.1224C65.6026 42.4096 64.1378 44.3818 63.0942 46.22C62.8358 46.6891 62.6443 46.9285 62.6156 46.8423C62.5868 46.7657 62.4336 46.2391 62.2709 45.6743C61.7348 43.8361 61.0933 42.333 60.6721 41.9309C60.1646 41.4522 59.2647 41.4618 58.7669 41.95C58.4509 42.2564 57.9339 43.4148 57.3978 45.0137L57.034 46.1051L56.7659 45.636C55.8947 44.1329 54.6118 42.4575 54.1044 42.1415C53.5012 41.7777 52.5821 41.9883 52.2183 42.5819C51.8641 43.1564 51.7013 44.6307 51.7013 47.321C51.6918 49.9442 51.8066 51.1027 52.2853 53.3908C52.8502 56.1194 53.8938 59.1064 55.0618 61.3276L55.4447 62.0648H53.597C52.5726 62.0648 51.7396 62.0552 51.7396 62.036C51.7396 62.0265 51.912 60.8297 52.113 59.3841C52.5247 56.4928 52.5247 56.1672 52.0843 55.4205C51.6535 54.6929 50.8971 54.3099 49.8536 54.3099H49.2313L49.5759 53.8504C50.4089 52.7111 50.7248 51.5622 50.6674 49.9155C50.6386 48.8911 50.5429 48.6518 49.978 48.2401C49.7578 48.0677 49.5472 48.0295 48.6473 48.0103C46.991 47.9624 45.9474 48.2688 44.7794 49.1496L44.272 49.5326V47.6561V45.7892L44.8273 45.2339C45.1432 44.9371 45.4879 44.4775 45.6124 44.2095L45.8326 43.7308L46.6559 43.7212C48.8962 43.6925 50.5237 42.0266 50.5333 39.7576C50.5333 38.8481 50.3706 38.2258 49.9302 37.5748L49.6525 37.1535L49.978 36.6174C50.5046 35.7462 50.6865 34.8271 50.5046 33.8793C50.1312 31.8783 48.5515 30.5667 46.5314 30.5667H45.8517L45.5836 30.0497C45.2294 29.3795 44.4252 28.6136 43.7263 28.2881C43.2572 28.0775 43.0178 28.0296 42.1658 28.0105C41.2754 27.9818 41.0935 28.0009 40.6052 28.2115ZM42.9604 29.6572C43.7167 29.9731 44.2912 30.672 44.4635 31.4954C44.6071 32.1655 44.8081 32.3283 45.3922 32.2517C46.8474 32.0698 47.0006 32.0698 47.5176 32.29C48.3505 32.6538 49.0589 33.6782 49.0589 34.5399C49.0589 35.0856 48.743 35.7653 48.2356 36.3206C47.5654 37.0482 47.5463 37.3067 48.1399 37.8716C49.1164 38.829 49.2887 39.93 48.6377 41.031C48.4271 41.3852 48.1877 41.615 47.8239 41.8352C47.1346 42.2468 46.6368 42.3139 45.8038 42.0937C44.8943 41.8639 44.722 41.9596 44.4635 42.8308C44.071 44.1329 43.2572 44.7839 42.0221 44.7839C40.7488 44.7743 39.9446 44.0659 39.5808 42.6489C39.4564 42.1702 39.1308 41.9117 38.7479 41.9883C38.5947 42.0266 38.2405 42.0937 37.9533 42.1607C36.5172 42.4575 35.0811 41.2607 35.0811 39.7576C35.0811 39.1066 35.397 38.4077 35.8949 37.9386C36.5459 37.3259 36.5267 36.9812 35.8087 36.2536C34.2003 34.6452 35.5023 31.8879 37.7426 32.1368C38.049 32.1655 38.4798 32.223 38.7192 32.2517C39.284 32.3187 39.4468 32.1847 39.6287 31.4954C39.8585 30.5954 40.4233 29.9348 41.2084 29.6189C41.5722 29.4753 42.5774 29.4944 42.9604 29.6572ZM60.5189 45.2626C61.4667 48.0582 61.8975 50.8346 61.8975 54.1663C61.8975 56.78 61.6199 59.1543 61.0454 61.3467L60.8731 62.0169H59.7338H58.5945L58.5179 61.7297C58.2882 60.935 57.8573 58.6277 57.7233 57.4693C57.5414 55.9375 57.5127 52.7015 57.6754 51.2463C57.9531 48.5847 58.6041 45.9232 59.4657 43.884L59.7242 43.2712L59.954 43.7882C60.0881 44.0754 60.337 44.736 60.5189 45.2626ZM54.2384 44.6403C54.8799 45.5115 55.7128 46.8614 56.1723 47.7614L56.5074 48.4316L56.3255 49.6666C55.8468 52.8738 55.9521 57.1438 56.584 60.2361C56.6606 60.6191 56.7085 60.9542 56.6893 60.9829C56.6223 61.0404 55.7511 59.2117 55.3011 58.0916C54.4395 55.9088 53.8076 53.5727 53.4534 51.1984C53.2044 49.5517 53.1183 46.7466 53.2619 45.2626C53.4151 43.7978 53.4534 43.6063 53.597 43.7882C53.6544 43.8648 53.9416 44.2478 54.2384 44.6403ZM42.7402 50.2889V54.3099H42.07H41.3998V50.3368V46.3732L42.0509 46.3349C42.4051 46.3157 42.7019 46.2966 42.721 46.287C42.7306 46.2774 42.7402 48.0773 42.7402 50.2889ZM37.5224 47.1295C37.9533 47.2923 38.2596 47.5125 38.7287 47.9816C39.5329 48.7858 39.7723 49.3698 39.8393 50.691L39.8967 51.6292H39.083C37.6277 51.6292 36.5172 51.1027 35.78 50.0783C35.2726 49.3794 35.0811 48.7092 35.0811 47.6944V46.8136L36.0193 46.8614C36.6608 46.8997 37.1299 46.9859 37.5224 47.1295ZM49.1355 50.5091C49.0972 51.3612 49.0494 51.5909 48.7909 52.1366C48.4175 52.9409 47.7856 53.5727 46.9814 53.9461C46.4357 54.2046 46.2059 54.2525 45.3443 54.2908L44.339 54.3386L44.3869 53.3334C44.4252 52.4717 44.4731 52.242 44.7316 51.6962C45.0762 50.9495 45.6889 50.2985 46.3687 49.9538C47.0197 49.6283 47.4218 49.5421 48.3792 49.5326L49.1834 49.523L49.1355 50.5091ZM71.6341 63.8263C71.9214 64.0848 71.9692 64.4678 71.7969 65.071L71.6437 65.6071H59.7338H47.8239L47.6707 65.071C47.4505 64.3146 47.5941 63.8551 48.1016 63.6636C48.1781 63.6349 53.4629 63.6157 59.8391 63.6253C70.9927 63.6444 71.4522 63.654 71.6341 63.8263ZM71.1172 67.3783C71.0884 67.5123 70.9831 67.8665 70.8874 68.1729L70.715 68.7186L62.6921 68.7665C58.269 68.7952 54.5926 68.8526 54.5065 68.8909C54.3246 68.9771 54.1331 69.36 54.1331 69.6377C54.1331 69.743 54.2384 69.9345 54.3724 70.0589L54.6022 70.2983H62.4145C66.7036 70.2983 70.2172 70.327 70.2172 70.3653C70.2172 70.5376 69.03 74.4916 68.9056 74.731C68.8386 74.8746 68.5992 75.1044 68.379 75.2576L67.9769 75.516H59.7338H51.4907L51.0886 75.2576C50.8684 75.1044 50.6291 74.8746 50.562 74.731C50.4376 74.4916 49.2504 70.5376 49.2504 70.3653C49.2504 70.327 49.844 70.2983 50.562 70.2983C51.7779 70.2983 51.8832 70.2791 52.0939 70.0877C52.3715 69.8292 52.3811 69.3505 52.1322 69.0441C51.9598 68.8239 51.8832 68.8143 50.3514 68.7665L48.7526 68.7186L48.5803 68.1729C48.4845 67.8665 48.3792 67.5123 48.3505 67.3783L48.293 67.1389H59.7338H71.1746L71.1172 67.3783Z" fill="white"/>
<path d="M41.39 33.0655C39.6667 33.3144 38.2019 34.7792 37.9626 36.512C37.6754 38.5992 38.8529 40.4948 40.8156 41.0979C42.29 41.5575 43.8984 41.165 44.9802 40.0831C45.8419 39.2215 46.2536 38.1013 46.1578 36.8471C45.9951 34.4058 43.8409 32.7112 41.39 33.0655ZM43.1899 34.8366C44.1569 35.2962 44.7217 36.3014 44.626 37.3641C44.4441 39.4608 41.9549 40.4852 40.3656 39.1257C39.188 38.1205 39.1689 36.311 40.3082 35.2579C41.1698 34.4728 42.1272 34.3292 43.1899 34.8366Z" fill="white"/>
</svg>
