<svg width="105" height="105" viewBox="0 0 105 105" fill="none" xmlns="http://www.w3.org/2000/svg">
<circle cx="52.5" cy="52.5" r="52.5" fill="#3E8847"/>
<path d="M55.7556 28.1022C55.6216 28.1596 54.1286 29.5857 52.4345 31.2797L49.3431 34.352L48.3095 33.3279C47.4481 32.4761 47.2184 32.3038 46.9791 32.3038C46.5197 32.3038 46.2326 32.591 46.2326 33.0599C46.2326 33.4332 46.29 33.5098 47.2375 34.4573L48.2329 35.4622L45.1606 38.5441C43.4666 40.2477 42.0405 41.7599 41.9831 41.9035C41.83 42.3054 41.8587 42.9371 42.0501 43.2817C42.1362 43.4444 43.3134 44.7747 44.6534 46.2295C45.9933 47.6939 47.1035 48.9094 47.1227 48.9477C47.1322 48.9859 45.6583 49.1104 43.8303 49.2252C40.289 49.4549 40.088 49.4932 39.8296 49.9909C39.6765 50.2876 39.4851 51.6945 39.4851 52.5272C39.4851 53.0344 39.5138 53.1206 39.8009 53.3981C40.0785 53.6757 40.2699 53.7427 41.9448 54.1255C43.7154 54.5275 43.7824 54.5371 44.0313 54.3744C44.3854 54.1351 44.4907 53.8097 44.328 53.4077C44.1748 53.044 44.1557 53.0344 42.2606 52.6037L41.0643 52.3358L41.093 51.6754C41.1121 51.3117 41.1504 50.9958 41.1696 50.9671C41.2174 50.9193 47.3332 50.4981 48.118 50.4981L48.5583 50.4886L50.6639 52.7665L52.7599 55.0443L49.9748 54.3935C48.4435 54.0394 47.0557 53.7427 46.893 53.7427C46.5197 53.7427 46.1847 54.0872 46.1847 54.4796C46.1847 55.1018 46.1943 55.1018 50.5586 56.1163L54.588 57.0542L55.8992 58.4803C57.8899 60.6529 58.5408 61.3037 58.9619 61.5143C59.4979 61.7918 60.388 61.8493 61.0292 61.6387C61.5173 61.4856 61.8906 61.1219 68.4084 54.6232C76.113 46.9282 75.7206 47.3972 75.644 46.0764C75.5866 45.1097 75.3569 44.7269 74.1605 43.6358L73.213 42.7744L73.9978 41.9417C75.1463 40.7358 75.845 39.2619 76.0173 37.6444C76.0651 37.1563 76.046 37.0893 75.8258 36.8596C75.5291 36.5629 75.108 36.5342 74.8113 36.7735C74.6582 36.8979 74.5529 37.1946 74.4189 37.855C74.1605 39.1183 73.7202 39.9606 72.8206 40.9177C72.4186 41.3388 72.0645 41.6738 72.0262 41.6642C71.9879 41.6451 71.7295 41.4345 71.4519 41.1761L70.9542 40.7262L71.5859 40.0563C71.9305 39.683 72.342 39.1375 72.4952 38.8312C73.6532 36.5246 72.6004 33.7873 70.1981 32.8685C69.4708 32.5814 68.3988 32.524 67.6236 32.725C66.7718 32.9451 66.2741 33.2609 65.3553 34.151L64.5609 34.9167L64.044 34.4477C63.7569 34.1893 63.5272 33.95 63.5176 33.9213C63.5081 33.8926 63.9292 33.4523 64.446 32.9547C65.8434 31.6052 67.0589 31.0596 68.7146 31.0596C69.6239 31.0596 70.7437 31.3563 71.5381 31.7966C72.3229 32.2273 73.3278 33.2226 73.749 33.9787C74.1988 34.7923 74.3041 34.888 74.706 34.888C75.1272 34.888 75.4717 34.5721 75.4717 34.1797C75.4717 33.6246 74.5625 32.2368 73.6628 31.4329C71.8635 29.7963 69.3368 29.155 66.9919 29.7197C65.4988 30.0738 64.5992 30.6002 63.1444 31.9689L62.2543 32.8111L61.7566 32.3325C60.053 30.6864 57.488 28.3223 57.2391 28.1692C56.9233 27.9778 56.1576 27.9395 55.7556 28.1022ZM54.5401 33.5672L51.5444 36.5629L51.018 36.0365L50.4916 35.5101L53.4778 32.524L56.4734 29.5283L56.9999 30.0547L57.5263 30.5811L54.5401 33.5672ZM67.0015 39.2332C70.6863 42.5734 73.7968 45.4543 73.9212 45.617C74.0552 45.818 74.1318 46.0572 74.1318 46.3157C74.1318 46.7081 74.1126 46.7272 67.4609 53.379C63.7952 57.0447 60.6655 60.0978 60.5219 60.1648C60.053 60.3562 59.6701 60.2031 59.048 59.5522C58.0814 58.5664 45.6966 44.9374 45.6487 44.813C45.6296 44.746 46.9408 43.3678 48.5774 41.7312L51.5444 38.7642L52.1091 39.3385L52.6834 39.9127L52.4824 40.487C51.8411 42.3724 53.1428 44.3058 55.1431 44.4398C56.3682 44.5163 57.4305 43.9516 58.0048 42.918C58.2728 42.4394 58.2919 42.3246 58.2919 41.4441C58.2919 40.5635 58.2728 40.4487 58.0048 39.9701C57.6602 39.348 56.9903 38.7929 56.3203 38.5728C55.7078 38.3718 54.6167 38.4101 54.1381 38.6589L53.8127 38.8312L53.2289 38.2474L52.6451 37.6635L55.6504 34.6583L58.6652 31.6434L59.4787 32.39C59.9285 32.8015 63.3167 35.8834 67.0015 39.2332ZM69.6622 34.3137C70.6384 34.6774 71.3275 35.6154 71.4232 36.6969C71.4998 37.52 71.2031 38.1995 70.4087 39.013L69.777 39.6639L67.748 37.8167L65.7285 35.9599L66.4081 35.29C67.5949 34.1415 68.4849 33.8735 69.6622 34.3137ZM47.4576 40.6497L44.462 43.6454L43.9356 43.119L43.4092 42.5926L46.3953 39.6064L49.391 36.6107L49.9174 37.1371L50.4438 37.6635L47.4576 40.6497ZM56.014 40.1137C56.9711 40.5731 57.086 42.0375 56.2055 42.6596C55.7652 42.9754 55.0282 43.0041 54.6167 42.717C54.1381 42.3916 53.918 42.047 53.8606 41.5302L53.8127 41.0708L54.0807 41.2814C54.4348 41.5589 54.8464 41.5493 55.1335 41.2526C55.4302 40.9655 55.4398 40.554 55.1718 40.2094L54.9804 39.9606H55.3249C55.5164 39.9606 55.8322 40.0276 56.014 40.1137Z" fill="white"/>
<path d="M36.4224 56.1354C36.0395 56.5182 36.2788 57.3605 36.7861 57.3892C37.1402 57.4179 37.3412 57.3605 37.523 57.1786C37.7623 56.9489 37.7623 56.4034 37.523 56.1354C37.2838 55.877 36.6808 55.877 36.4224 56.1354Z" fill="white"/>
<path d="M39.5808 56.1163C39.3128 56.3269 39.2937 56.9203 39.5425 57.1978C39.7818 57.4658 40.4805 57.4467 40.6719 57.1691C40.8825 56.8724 40.8633 56.2981 40.6528 56.1067C40.4231 55.8962 39.8488 55.8962 39.5808 56.1163Z" fill="white"/>
<path d="M36.4989 58.911C36.2596 59.1598 36.2213 59.2555 36.2692 59.5139C36.4414 60.4232 37.7622 60.3466 37.7622 59.4278C37.7622 59.0163 37.4081 58.6238 37.0444 58.6238C36.8913 58.6238 36.6712 58.7387 36.4989 58.911Z" fill="white"/>
<path d="M39.8106 58.7292C39.3608 58.9589 39.2746 59.5618 39.6287 59.9159C40.1073 60.4041 40.9208 60.0882 40.9208 59.4183C40.9208 58.8536 40.3083 58.4803 39.8106 58.7292Z" fill="white"/>
<path d="M33.2161 62.3661C32.3835 62.4905 32.0581 62.6245 31.7805 62.9403C31.1105 63.7443 31.8475 66.0413 33.1683 67.276C34.2115 68.233 35.3696 68.6733 36.8722 68.6733H37.7623V69.2476C37.7623 69.7165 37.7336 69.841 37.5996 69.8792C37.0924 70.0228 36.1927 70.5588 35.9056 70.8842C35.5993 71.2096 35.5323 71.2479 35.3217 71.1617C34.8911 70.999 33.8861 71.0469 33.3119 71.267C31.8858 71.7934 31.1105 73.5258 31.6082 75.0188L31.7997 75.5644H30.096H28.3924L28.201 75.8132C28.0861 75.9568 28 76.1673 28 76.2822C28 76.397 28.0861 76.6076 28.201 76.7512L28.3924 77H38.5759H48.7593L48.9507 76.7512C49.2091 76.4257 49.2091 76.1386 48.9507 75.8132L48.7593 75.5644H47.027C45.4191 75.5644 45.3042 75.5548 45.3712 75.4017C45.9455 74.0713 45.687 72.7505 44.6917 71.8413C44.4045 71.5733 43.9834 71.3053 43.7346 71.2192C43.2273 71.0469 42.2128 71.0182 41.8395 71.1617C41.6194 71.2383 41.5428 71.2096 41.1696 70.8268C40.7389 70.3961 40.2795 70.1281 39.6574 69.9271L39.2937 69.8027V69.2188V68.6254L40.1551 68.6542C41.227 68.6924 41.8108 68.5776 42.7296 68.1373C44.3567 67.3525 45.6009 65.4383 45.6105 63.7251C45.6105 63.3423 45.5626 63.17 45.3712 62.9499C45.0458 62.5671 44.1748 62.3278 43.122 62.3374C42.1362 62.3374 41.5524 62.4714 40.7485 62.8446C40.1359 63.1413 39.0353 64.0888 38.7481 64.5578L38.595 64.8258L38.2409 64.376C37.0349 62.8542 35.1112 62.0885 33.2161 62.3661ZM35.226 64.0506C36.432 64.4717 37.4178 65.5532 37.7145 66.7783C37.7719 66.9984 37.7432 67.0462 37.5231 67.1037C37.3891 67.1324 36.9297 67.142 36.5181 67.1228C35.5323 67.0654 34.7092 66.673 34.068 65.9647C33.5894 65.4383 33.1683 64.6439 33.1396 64.2037C33.1204 63.974 33.1587 63.9261 33.4554 63.8783C33.8861 63.7921 34.7379 63.8783 35.226 64.0506ZM43.9547 63.9357C44.1078 63.9836 43.9451 64.5482 43.5719 65.2565C42.9976 66.3476 41.8874 67.0462 40.6145 67.1228C40.2125 67.142 39.7627 67.142 39.6287 67.1037C39.399 67.0462 39.3798 67.008 39.4468 66.7304C39.7244 65.4192 41.1122 64.1271 42.4617 63.8974C42.9211 63.8208 43.6389 63.84 43.9547 63.9357ZM39.1597 71.401C39.6957 71.5541 40.1742 71.9753 40.4518 72.5208C40.7485 73.1046 41.2749 73.2482 41.7917 72.8749C42.1075 72.6548 42.6914 72.54 43.0646 72.6357C43.1986 72.6644 43.457 72.8271 43.6484 72.9898C44.5577 73.7937 44.1174 75.2007 42.8732 75.4687C42.5478 75.5356 40.9782 75.5644 38.2313 75.5452C34.1445 75.5165 34.068 75.5165 33.7425 75.3059C33.3501 75.0667 32.9769 74.4637 32.9769 74.0713C32.9769 73.6215 33.3214 73.0376 33.733 72.8079C34.2211 72.5304 34.7475 72.54 35.226 72.8367C35.6376 73.0855 36.097 73.1429 36.3267 72.9515C36.4128 72.8845 36.5947 72.6357 36.7382 72.3868C37.0254 71.8987 37.4082 71.5829 37.9442 71.3914C38.394 71.2287 38.5854 71.2287 39.1597 71.401Z" fill="white"/>
</svg>
