<svg width="1920" height="485" viewBox="0 0 1920 485" fill="none" xmlns="http://www.w3.org/2000/svg">
<mask id="mask0_219_641" style="mask-type:alpha" maskUnits="userSpaceOnUse" x="0" y="0" width="1920" height="485">
<rect width="1920" height="485" fill="#09270D"/>
</mask>
<g mask="url(#mask0_219_641)">
<rect width="1920" height="485" fill="#09270D"/>
<path opacity="0.6" d="M299.559 430.463C299.559 429.579 299.758 428.786 300.157 428.084C300.556 427.373 301.097 426.819 301.782 426.42C302.475 426.021 303.242 425.822 304.083 425.822C305.071 425.822 305.933 426.06 306.67 426.537C307.407 427.014 307.944 427.69 308.282 428.565H306.865C306.614 428.019 306.25 427.599 305.773 427.304C305.305 427.009 304.742 426.862 304.083 426.862C303.45 426.862 302.883 427.009 302.38 427.304C301.877 427.599 301.483 428.019 301.197 428.565C300.911 429.102 300.768 429.735 300.768 430.463C300.768 431.182 300.911 431.815 301.197 432.361C301.483 432.898 301.877 433.314 302.38 433.609C302.883 433.904 303.45 434.051 304.083 434.051C304.742 434.051 305.305 433.908 305.773 433.622C306.25 433.327 306.614 432.907 306.865 432.361H308.282C307.944 433.228 307.407 433.899 306.67 434.376C305.933 434.844 305.071 435.078 304.083 435.078C303.242 435.078 302.475 434.883 301.782 434.493C301.097 434.094 300.556 433.544 300.157 432.842C299.758 432.14 299.559 431.347 299.559 430.463ZM313.15 435.117C312.483 435.117 311.876 434.965 311.33 434.662C310.793 434.359 310.368 433.93 310.056 433.375C309.753 432.812 309.601 432.162 309.601 431.425C309.601 430.697 309.757 430.056 310.069 429.501C310.39 428.938 310.823 428.509 311.369 428.214C311.915 427.911 312.526 427.759 313.202 427.759C313.878 427.759 314.489 427.911 315.035 428.214C315.581 428.509 316.01 428.933 316.322 429.488C316.643 430.043 316.803 430.688 316.803 431.425C316.803 432.162 316.638 432.812 316.309 433.375C315.988 433.93 315.551 434.359 314.996 434.662C314.441 434.965 313.826 435.117 313.15 435.117ZM313.15 434.077C313.575 434.077 313.973 433.977 314.346 433.778C314.719 433.579 315.018 433.28 315.243 432.881C315.477 432.482 315.594 431.997 315.594 431.425C315.594 430.853 315.481 430.368 315.256 429.969C315.031 429.57 314.736 429.276 314.372 429.085C314.008 428.886 313.614 428.786 313.189 428.786C312.756 428.786 312.357 428.886 311.993 429.085C311.638 429.276 311.352 429.57 311.135 429.969C310.918 430.368 310.81 430.853 310.81 431.425C310.81 432.006 310.914 432.495 311.122 432.894C311.339 433.293 311.625 433.592 311.98 433.791C312.335 433.982 312.725 434.077 313.15 434.077ZM319.541 429.189C319.775 428.782 320.122 428.444 320.581 428.175C321.049 427.898 321.591 427.759 322.206 427.759C322.839 427.759 323.411 427.911 323.922 428.214C324.442 428.517 324.85 428.946 325.144 429.501C325.439 430.047 325.586 430.684 325.586 431.412C325.586 432.131 325.439 432.773 325.144 433.336C324.85 433.899 324.442 434.337 323.922 434.649C323.411 434.961 322.839 435.117 322.206 435.117C321.6 435.117 321.062 434.983 320.594 434.714C320.135 434.437 319.784 434.094 319.541 433.687V438.38H318.358V427.876H319.541V429.189ZM324.377 431.412C324.377 430.875 324.269 430.407 324.052 430.008C323.836 429.609 323.541 429.306 323.168 429.098C322.804 428.89 322.401 428.786 321.959 428.786C321.526 428.786 321.123 428.894 320.75 429.111C320.386 429.319 320.092 429.627 319.866 430.034C319.65 430.433 319.541 430.896 319.541 431.425C319.541 431.962 319.65 432.435 319.866 432.842C320.092 433.241 320.386 433.548 320.75 433.765C321.123 433.973 321.526 434.077 321.959 434.077C322.401 434.077 322.804 433.973 323.168 433.765C323.541 433.548 323.836 433.241 324.052 432.842C324.269 432.435 324.377 431.958 324.377 431.412ZM333.28 427.876L328.99 438.354H327.768L329.172 434.922L326.299 427.876H327.612L329.848 433.648L332.058 427.876H333.28ZM335.652 429.033C335.86 428.626 336.154 428.309 336.536 428.084C336.926 427.859 337.398 427.746 337.953 427.746V428.968H337.641C336.315 428.968 335.652 429.687 335.652 431.126V435H334.469V427.876H335.652V429.033ZM339.929 426.719C339.704 426.719 339.513 426.641 339.357 426.485C339.201 426.329 339.123 426.138 339.123 425.913C339.123 425.688 339.201 425.497 339.357 425.341C339.513 425.185 339.704 425.107 339.929 425.107C340.146 425.107 340.328 425.185 340.475 425.341C340.631 425.497 340.709 425.688 340.709 425.913C340.709 426.138 340.631 426.329 340.475 426.485C340.328 426.641 340.146 426.719 339.929 426.719ZM340.501 427.876V435H339.318V427.876H340.501ZM345.456 427.759C346.071 427.759 346.608 427.893 347.068 428.162C347.536 428.431 347.882 428.769 348.108 429.176V427.876H349.304V435.156C349.304 435.806 349.165 436.382 348.888 436.885C348.61 437.396 348.212 437.795 347.692 438.081C347.18 438.367 346.582 438.51 345.898 438.51C344.962 438.51 344.182 438.289 343.558 437.847C342.934 437.405 342.565 436.803 342.453 436.04H343.623C343.753 436.473 344.021 436.82 344.429 437.08C344.836 437.349 345.326 437.483 345.898 437.483C346.548 437.483 347.076 437.279 347.484 436.872C347.9 436.465 348.108 435.893 348.108 435.156V433.661C347.874 434.077 347.527 434.424 347.068 434.701C346.608 434.978 346.071 435.117 345.456 435.117C344.823 435.117 344.247 434.961 343.727 434.649C343.215 434.337 342.812 433.899 342.518 433.336C342.223 432.773 342.076 432.131 342.076 431.412C342.076 430.684 342.223 430.047 342.518 429.501C342.812 428.946 343.215 428.517 343.727 428.214C344.247 427.911 344.823 427.759 345.456 427.759ZM348.108 431.425C348.108 430.888 347.999 430.42 347.783 430.021C347.566 429.622 347.271 429.319 346.899 429.111C346.535 428.894 346.132 428.786 345.69 428.786C345.248 428.786 344.845 428.89 344.481 429.098C344.117 429.306 343.826 429.609 343.61 430.008C343.393 430.407 343.285 430.875 343.285 431.412C343.285 431.958 343.393 432.435 343.61 432.842C343.826 433.241 344.117 433.548 344.481 433.765C344.845 433.973 345.248 434.077 345.69 434.077C346.132 434.077 346.535 433.973 346.899 433.765C347.271 433.548 347.566 433.241 347.783 432.842C347.999 432.435 348.108 431.962 348.108 431.425ZM354.839 427.746C355.376 427.746 355.861 427.863 356.295 428.097C356.728 428.322 357.066 428.665 357.309 429.124C357.56 429.583 357.686 430.142 357.686 430.801V435H356.516V430.97C356.516 430.259 356.338 429.718 355.983 429.345C355.627 428.964 355.142 428.773 354.527 428.773C353.903 428.773 353.404 428.968 353.032 429.358C352.668 429.748 352.486 430.316 352.486 431.061V435H351.303V425.38H352.486V428.89C352.72 428.526 353.04 428.244 353.448 428.045C353.864 427.846 354.327 427.746 354.839 427.746ZM361.061 428.851V433.05C361.061 433.397 361.135 433.644 361.282 433.791C361.43 433.93 361.685 433.999 362.049 433.999H362.92V435H361.854C361.196 435 360.702 434.848 360.372 434.545C360.043 434.242 359.878 433.743 359.878 433.05V428.851H358.955V427.876H359.878V426.082H361.061V427.876H362.92V428.851H361.061ZM371.979 425.848C372.855 425.848 373.635 426.047 374.319 426.446C375.004 426.836 375.533 427.382 375.905 428.084C376.287 428.777 376.477 429.57 376.477 430.463C376.477 431.356 376.287 432.153 375.905 432.855C375.533 433.548 375.004 434.094 374.319 434.493C373.635 434.883 372.855 435.078 371.979 435.078C371.095 435.078 370.311 434.883 369.626 434.493C368.942 434.094 368.409 433.548 368.027 432.855C367.646 432.153 367.455 431.356 367.455 430.463C367.455 429.57 367.646 428.777 368.027 428.084C368.409 427.382 368.942 426.836 369.626 426.446C370.311 426.047 371.095 425.848 371.979 425.848ZM371.979 426.368C371.173 426.368 370.471 426.541 369.873 426.888C369.275 427.226 368.816 427.703 368.495 428.318C368.175 428.933 368.014 429.648 368.014 430.463C368.014 431.269 368.175 431.984 368.495 432.608C368.816 433.223 369.275 433.704 369.873 434.051C370.471 434.398 371.173 434.571 371.979 434.571C372.777 434.571 373.47 434.398 374.059 434.051C374.657 433.704 375.117 433.223 375.437 432.608C375.758 431.984 375.918 431.269 375.918 430.463C375.918 429.648 375.758 428.933 375.437 428.318C375.117 427.703 374.657 427.226 374.059 426.888C373.47 426.541 372.777 426.368 371.979 426.368ZM371.953 427.447C371.433 427.447 370.957 427.568 370.523 427.811C370.099 428.054 369.761 428.405 369.509 428.864C369.258 429.315 369.132 429.843 369.132 430.45C369.132 431.057 369.258 431.59 369.509 432.049C369.761 432.5 370.099 432.851 370.523 433.102C370.957 433.345 371.433 433.466 371.953 433.466C372.603 433.466 373.167 433.293 373.643 432.946C374.12 432.591 374.445 432.118 374.618 431.529H373.526C373.266 432.248 372.742 432.608 371.953 432.608C371.433 432.608 371.009 432.422 370.679 432.049C370.35 431.676 370.185 431.148 370.185 430.463C370.185 429.77 370.35 429.237 370.679 428.864C371.009 428.491 371.433 428.305 371.953 428.305C372.335 428.305 372.664 428.4 372.941 428.591C373.219 428.773 373.414 429.037 373.526 429.384H374.618C374.454 428.769 374.133 428.292 373.656 427.954C373.18 427.616 372.612 427.447 371.953 427.447ZM381.243 434.051C382.344 433.167 383.206 432.443 383.83 431.88C384.454 431.308 384.978 430.714 385.403 430.099C385.836 429.475 386.053 428.864 386.053 428.266C386.053 427.703 385.914 427.261 385.637 426.94C385.368 426.611 384.931 426.446 384.324 426.446C383.735 426.446 383.275 426.632 382.946 427.005C382.625 427.369 382.452 427.859 382.426 428.474H381.282C381.317 427.503 381.611 426.754 382.166 426.225C382.721 425.696 383.436 425.432 384.311 425.432C385.204 425.432 385.91 425.679 386.43 426.173C386.959 426.667 387.223 427.347 387.223 428.214C387.223 428.933 387.006 429.635 386.573 430.32C386.148 430.996 385.663 431.594 385.117 432.114C384.571 432.625 383.873 433.223 383.024 433.908H387.496V434.896H381.243V434.051ZM388.864 430.203C388.864 428.712 389.106 427.551 389.592 426.719C390.077 425.878 390.926 425.458 392.14 425.458C393.344 425.458 394.189 425.878 394.675 426.719C395.16 427.551 395.403 428.712 395.403 430.203C395.403 431.72 395.16 432.898 394.675 433.739C394.189 434.58 393.344 435 392.14 435C390.926 435 390.077 434.58 389.592 433.739C389.106 432.898 388.864 431.72 388.864 430.203ZM394.233 430.203C394.233 429.449 394.181 428.812 394.077 428.292C393.981 427.763 393.778 427.339 393.466 427.018C393.162 426.697 392.72 426.537 392.14 426.537C391.55 426.537 391.1 426.697 390.788 427.018C390.484 427.339 390.281 427.763 390.177 428.292C390.081 428.812 390.034 429.449 390.034 430.203C390.034 430.983 390.081 431.637 390.177 432.166C390.281 432.695 390.484 433.119 390.788 433.44C391.1 433.761 391.55 433.921 392.14 433.921C392.72 433.921 393.162 433.761 393.466 433.44C393.778 433.119 393.981 432.695 394.077 432.166C394.181 431.637 394.233 430.983 394.233 430.203ZM396.884 434.051C397.984 433.167 398.847 432.443 399.471 431.88C400.095 431.308 400.619 430.714 401.044 430.099C401.477 429.475 401.694 428.864 401.694 428.266C401.694 427.703 401.555 427.261 401.278 426.94C401.009 426.611 400.571 426.446 399.965 426.446C399.375 426.446 398.916 426.632 398.587 427.005C398.266 427.369 398.093 427.859 398.067 428.474H396.923C396.957 427.503 397.252 426.754 397.807 426.225C398.361 425.696 399.076 425.432 399.952 425.432C400.844 425.432 401.551 425.679 402.071 426.173C402.599 426.667 402.864 427.347 402.864 428.214C402.864 428.933 402.647 429.635 402.214 430.32C401.789 430.996 401.304 431.594 400.758 432.114C400.212 432.625 399.514 433.223 398.665 433.908H403.137V434.896H396.884V434.051ZM404.478 427.967C404.539 427.17 404.847 426.546 405.401 426.095C405.956 425.644 406.675 425.419 407.559 425.419C408.149 425.419 408.656 425.527 409.08 425.744C409.514 425.952 409.839 426.238 410.055 426.602C410.281 426.966 410.393 427.378 410.393 427.837C410.393 428.374 410.237 428.838 409.925 429.228C409.622 429.618 409.223 429.869 408.729 429.982V430.047C409.293 430.186 409.739 430.459 410.068 430.866C410.398 431.273 410.562 431.806 410.562 432.465C410.562 432.959 410.45 433.405 410.224 433.804C409.999 434.194 409.661 434.502 409.21 434.727C408.76 434.952 408.218 435.065 407.585 435.065C406.667 435.065 405.913 434.827 405.323 434.35C404.734 433.865 404.405 433.18 404.335 432.296H405.479C405.54 432.816 405.752 433.241 406.116 433.57C406.48 433.899 406.966 434.064 407.572 434.064C408.179 434.064 408.638 433.908 408.95 433.596C409.271 433.275 409.431 432.864 409.431 432.361C409.431 431.711 409.215 431.243 408.781 430.957C408.348 430.671 407.694 430.528 406.818 430.528H406.519V429.54H406.831C407.629 429.531 408.231 429.401 408.638 429.15C409.046 428.89 409.249 428.491 409.249 427.954C409.249 427.495 409.098 427.126 408.794 426.849C408.5 426.572 408.075 426.433 407.52 426.433C406.983 426.433 406.55 426.572 406.22 426.849C405.891 427.126 405.696 427.499 405.635 427.967H404.478ZM422.944 435H421.761L417.003 427.785V435H415.82V425.926H417.003L421.761 433.128V425.926H422.944V435ZM431.279 427.876V435H430.096V433.947C429.871 434.311 429.554 434.597 429.147 434.805C428.748 435.004 428.306 435.104 427.821 435.104C427.266 435.104 426.768 434.991 426.326 434.766C425.884 434.532 425.533 434.185 425.273 433.726C425.022 433.267 424.896 432.708 424.896 432.049V427.876H426.066V431.893C426.066 432.595 426.244 433.137 426.599 433.518C426.954 433.891 427.44 434.077 428.055 434.077C428.688 434.077 429.186 433.882 429.55 433.492C429.914 433.102 430.096 432.534 430.096 431.789V427.876H431.279ZM435.928 433.908L438.138 427.876H439.399L436.604 435H435.226L432.431 427.876H433.705L435.928 433.908ZM443.671 435.117C443.003 435.117 442.397 434.965 441.851 434.662C441.313 434.359 440.889 433.93 440.577 433.375C440.273 432.812 440.122 432.162 440.122 431.425C440.122 430.697 440.278 430.056 440.59 429.501C440.91 428.938 441.344 428.509 441.89 428.214C442.436 427.911 443.047 427.759 443.723 427.759C444.399 427.759 445.01 427.911 445.556 428.214C446.102 428.509 446.531 428.933 446.843 429.488C447.163 430.043 447.324 430.688 447.324 431.425C447.324 432.162 447.159 432.812 446.83 433.375C446.509 433.93 446.071 434.359 445.517 434.662C444.962 434.965 444.347 435.117 443.671 435.117ZM443.671 434.077C444.095 434.077 444.494 433.977 444.867 433.778C445.239 433.579 445.538 433.28 445.764 432.881C445.998 432.482 446.115 431.997 446.115 431.425C446.115 430.853 446.002 430.368 445.777 429.969C445.551 429.57 445.257 429.276 444.893 429.085C444.529 428.886 444.134 428.786 443.71 428.786C443.276 428.786 442.878 428.886 442.514 429.085C442.158 429.276 441.872 429.57 441.656 429.969C441.439 430.368 441.331 430.853 441.331 431.425C441.331 432.006 441.435 432.495 441.643 432.894C441.859 433.293 442.145 433.592 442.501 433.791C442.856 433.982 443.246 434.077 443.671 434.077ZM451.401 435.117C450.855 435.117 450.365 435.026 449.932 434.844C449.499 434.653 449.156 434.393 448.905 434.064C448.654 433.726 448.515 433.34 448.489 432.907H449.711C449.746 433.262 449.91 433.553 450.205 433.778C450.508 434.003 450.903 434.116 451.388 434.116C451.839 434.116 452.194 434.016 452.454 433.817C452.714 433.618 452.844 433.366 452.844 433.063C452.844 432.751 452.705 432.521 452.428 432.374C452.151 432.218 451.722 432.066 451.141 431.919C450.612 431.78 450.179 431.642 449.841 431.503C449.512 431.356 449.226 431.143 448.983 430.866C448.749 430.58 448.632 430.207 448.632 429.748C448.632 429.384 448.74 429.05 448.957 428.747C449.174 428.444 449.481 428.205 449.88 428.032C450.279 427.85 450.734 427.759 451.245 427.759C452.034 427.759 452.671 427.958 453.156 428.357C453.641 428.756 453.901 429.302 453.936 429.995H452.753C452.727 429.622 452.575 429.323 452.298 429.098C452.029 428.873 451.665 428.76 451.206 428.76C450.781 428.76 450.443 428.851 450.192 429.033C449.941 429.215 449.815 429.453 449.815 429.748C449.815 429.982 449.889 430.177 450.036 430.333C450.192 430.48 450.383 430.602 450.608 430.697C450.842 430.784 451.163 430.883 451.57 430.996C452.081 431.135 452.497 431.273 452.818 431.412C453.139 431.542 453.412 431.741 453.637 432.01C453.871 432.279 453.992 432.63 454.001 433.063C454.001 433.453 453.893 433.804 453.676 434.116C453.459 434.428 453.152 434.675 452.753 434.857C452.363 435.03 451.912 435.117 451.401 435.117ZM455.229 431.412C455.229 430.684 455.376 430.047 455.671 429.501C455.966 428.946 456.369 428.517 456.88 428.214C457.4 427.911 457.976 427.759 458.609 427.759C459.233 427.759 459.775 427.893 460.234 428.162C460.693 428.431 461.036 428.769 461.261 429.176V427.876H462.457V435H461.261V433.674C461.027 434.09 460.676 434.437 460.208 434.714C459.749 434.983 459.211 435.117 458.596 435.117C457.963 435.117 457.391 434.961 456.88 434.649C456.369 434.337 455.966 433.899 455.671 433.336C455.376 432.773 455.229 432.131 455.229 431.412ZM461.261 431.425C461.261 430.888 461.153 430.42 460.936 430.021C460.719 429.622 460.425 429.319 460.052 429.111C459.688 428.894 459.285 428.786 458.843 428.786C458.401 428.786 457.998 428.89 457.634 429.098C457.27 429.306 456.98 429.609 456.763 430.008C456.546 430.407 456.438 430.875 456.438 431.412C456.438 431.958 456.546 432.435 456.763 432.842C456.98 433.241 457.27 433.548 457.634 433.765C457.998 433.973 458.401 434.077 458.843 434.077C459.285 434.077 459.688 433.973 460.052 433.765C460.425 433.548 460.719 433.241 460.936 432.842C461.153 432.435 461.261 431.962 461.261 431.425ZM465.678 433.362L464.222 436.859H463.429L464.378 433.362H465.678ZM475.855 432.985H471.903L471.175 435H469.927L473.203 425.991H474.568L477.831 435H476.583L475.855 432.985ZM475.517 432.023L473.879 427.447L472.241 432.023H475.517ZM480.442 425.38V435H479.259V425.38H480.442ZM483.641 425.38V435H482.458V425.38H483.641ZM493.894 435L491.736 431.295H490.306V435H489.123V425.939H492.048C492.733 425.939 493.309 426.056 493.777 426.29C494.254 426.524 494.609 426.84 494.843 427.239C495.077 427.638 495.194 428.093 495.194 428.604C495.194 429.228 495.012 429.778 494.648 430.255C494.293 430.732 493.755 431.048 493.036 431.204L495.311 435H493.894ZM490.306 430.346H492.048C492.689 430.346 493.17 430.19 493.491 429.878C493.812 429.557 493.972 429.133 493.972 428.604C493.972 428.067 493.812 427.651 493.491 427.356C493.179 427.061 492.698 426.914 492.048 426.914H490.306V430.346ZM497.643 426.719C497.418 426.719 497.227 426.641 497.071 426.485C496.915 426.329 496.837 426.138 496.837 425.913C496.837 425.688 496.915 425.497 497.071 425.341C497.227 425.185 497.418 425.107 497.643 425.107C497.86 425.107 498.042 425.185 498.189 425.341C498.345 425.497 498.423 425.688 498.423 425.913C498.423 426.138 498.345 426.329 498.189 426.485C498.042 426.641 497.86 426.719 497.643 426.719ZM498.215 427.876V435H497.032V427.876H498.215ZM503.169 427.759C503.785 427.759 504.322 427.893 504.781 428.162C505.249 428.431 505.596 428.769 505.821 429.176V427.876H507.017V435.156C507.017 435.806 506.879 436.382 506.601 436.885C506.324 437.396 505.925 437.795 505.405 438.081C504.894 438.367 504.296 438.51 503.611 438.51C502.675 438.51 501.895 438.289 501.271 437.847C500.647 437.405 500.279 436.803 500.166 436.04H501.336C501.466 436.473 501.735 436.82 502.142 437.08C502.55 437.349 503.039 437.483 503.611 437.483C504.261 437.483 504.79 437.279 505.197 436.872C505.613 436.465 505.821 435.893 505.821 435.156V433.661C505.587 434.077 505.241 434.424 504.781 434.701C504.322 434.978 503.785 435.117 503.169 435.117C502.537 435.117 501.96 434.961 501.44 434.649C500.929 434.337 500.526 433.899 500.231 433.336C499.937 432.773 499.789 432.131 499.789 431.412C499.789 430.684 499.937 430.047 500.231 429.501C500.526 428.946 500.929 428.517 501.44 428.214C501.96 427.911 502.537 427.759 503.169 427.759ZM505.821 431.425C505.821 430.888 505.713 430.42 505.496 430.021C505.28 429.622 504.985 429.319 504.612 429.111C504.248 428.894 503.845 428.786 503.403 428.786C502.961 428.786 502.558 428.89 502.194 429.098C501.83 429.306 501.54 429.609 501.323 430.008C501.107 430.407 500.998 430.875 500.998 431.412C500.998 431.958 501.107 432.435 501.323 432.842C501.54 433.241 501.83 433.548 502.194 433.765C502.558 433.973 502.961 434.077 503.403 434.077C503.845 434.077 504.248 433.973 504.612 433.765C504.985 433.548 505.28 433.241 505.496 432.842C505.713 432.435 505.821 431.962 505.821 431.425ZM512.553 427.746C513.09 427.746 513.575 427.863 514.009 428.097C514.442 428.322 514.78 428.665 515.023 429.124C515.274 429.583 515.4 430.142 515.4 430.801V435H514.23V430.97C514.23 430.259 514.052 429.718 513.697 429.345C513.341 428.964 512.856 428.773 512.241 428.773C511.617 428.773 511.118 428.968 510.746 429.358C510.382 429.748 510.2 430.316 510.2 431.061V435H509.017V425.38H510.2V428.89C510.434 428.526 510.754 428.244 511.162 428.045C511.578 427.846 512.041 427.746 512.553 427.746ZM518.775 428.851V433.05C518.775 433.397 518.849 433.644 518.996 433.791C519.143 433.93 519.399 433.999 519.763 433.999H520.634V435H519.568C518.909 435 518.415 434.848 518.086 434.545C517.757 434.242 517.592 433.743 517.592 433.05V428.851H516.669V427.876H517.592V426.082H518.775V427.876H520.634V428.851H518.775ZM524.589 435.117C524.043 435.117 523.554 435.026 523.12 434.844C522.687 434.653 522.345 434.393 522.093 434.064C521.842 433.726 521.703 433.34 521.677 432.907H522.899C522.934 433.262 523.099 433.553 523.393 433.778C523.697 434.003 524.091 434.116 524.576 434.116C525.027 434.116 525.382 434.016 525.642 433.817C525.902 433.618 526.032 433.366 526.032 433.063C526.032 432.751 525.894 432.521 525.616 432.374C525.339 432.218 524.91 432.066 524.329 431.919C523.801 431.78 523.367 431.642 523.029 431.503C522.7 431.356 522.414 431.143 522.171 430.866C521.937 430.58 521.82 430.207 521.82 429.748C521.82 429.384 521.929 429.05 522.145 428.747C522.362 428.444 522.67 428.205 523.068 428.032C523.467 427.85 523.922 427.759 524.433 427.759C525.222 427.759 525.859 427.958 526.344 428.357C526.83 428.756 527.09 429.302 527.124 429.995H525.941C525.915 429.622 525.764 429.323 525.486 429.098C525.218 428.873 524.854 428.76 524.394 428.76C523.97 428.76 523.632 428.851 523.38 429.033C523.129 429.215 523.003 429.453 523.003 429.748C523.003 429.982 523.077 430.177 523.224 430.333C523.38 430.48 523.571 430.602 523.796 430.697C524.03 430.784 524.351 430.883 524.758 430.996C525.27 431.135 525.686 431.273 526.006 431.412C526.327 431.542 526.6 431.741 526.825 432.01C527.059 432.279 527.181 432.63 527.189 433.063C527.189 433.453 527.081 433.804 526.864 434.116C526.648 434.428 526.34 434.675 525.941 434.857C525.551 435.03 525.101 435.117 524.589 435.117ZM537.096 435L534.938 431.295H533.508V435H532.325V425.939H535.25C535.935 425.939 536.511 426.056 536.979 426.29C537.456 426.524 537.811 426.84 538.045 427.239C538.279 427.638 538.396 428.093 538.396 428.604C538.396 429.228 538.214 429.778 537.85 430.255C537.495 430.732 536.958 431.048 536.238 431.204L538.513 435H537.096ZM533.508 430.346H535.25C535.892 430.346 536.373 430.19 536.693 429.878C537.014 429.557 537.174 429.133 537.174 428.604C537.174 428.067 537.014 427.651 536.693 427.356C536.381 427.061 535.9 426.914 535.25 426.914H533.508V430.346ZM546.734 431.165C546.734 431.39 546.721 431.629 546.695 431.88H541.001C541.045 432.582 541.283 433.132 541.716 433.531C542.158 433.921 542.691 434.116 543.315 434.116C543.827 434.116 544.251 433.999 544.589 433.765C544.936 433.522 545.179 433.202 545.317 432.803H546.591C546.401 433.488 546.019 434.047 545.447 434.48C544.875 434.905 544.165 435.117 543.315 435.117C542.639 435.117 542.033 434.965 541.495 434.662C540.967 434.359 540.551 433.93 540.247 433.375C539.944 432.812 539.792 432.162 539.792 431.425C539.792 430.688 539.94 430.043 540.234 429.488C540.529 428.933 540.941 428.509 541.469 428.214C542.007 427.911 542.622 427.759 543.315 427.759C543.991 427.759 544.589 427.906 545.109 428.201C545.629 428.496 546.028 428.903 546.305 429.423C546.591 429.934 546.734 430.515 546.734 431.165ZM545.512 430.918C545.512 430.467 545.413 430.082 545.213 429.761C545.014 429.432 544.741 429.185 544.394 429.02C544.056 428.847 543.679 428.76 543.263 428.76C542.665 428.76 542.154 428.951 541.729 429.332C541.313 429.713 541.075 430.242 541.014 430.918H545.512ZM550.818 435.117C550.272 435.117 549.782 435.026 549.349 434.844C548.916 434.653 548.573 434.393 548.322 434.064C548.071 433.726 547.932 433.34 547.906 432.907H549.128C549.163 433.262 549.327 433.553 549.622 433.778C549.925 434.003 550.32 434.116 550.805 434.116C551.256 434.116 551.611 434.016 551.871 433.817C552.131 433.618 552.261 433.366 552.261 433.063C552.261 432.751 552.122 432.521 551.845 432.374C551.568 432.218 551.139 432.066 550.558 431.919C550.029 431.78 549.596 431.642 549.258 431.503C548.929 431.356 548.643 431.143 548.4 430.866C548.166 430.58 548.049 430.207 548.049 429.748C548.049 429.384 548.157 429.05 548.374 428.747C548.591 428.444 548.898 428.205 549.297 428.032C549.696 427.85 550.151 427.759 550.662 427.759C551.451 427.759 552.088 427.958 552.573 428.357C553.058 428.756 553.318 429.302 553.353 429.995H552.17C552.144 429.622 551.992 429.323 551.715 429.098C551.446 428.873 551.082 428.76 550.623 428.76C550.198 428.76 549.86 428.851 549.609 429.033C549.358 429.215 549.232 429.453 549.232 429.748C549.232 429.982 549.306 430.177 549.453 430.333C549.609 430.48 549.8 430.602 550.025 430.697C550.259 430.784 550.58 430.883 550.987 430.996C551.498 431.135 551.914 431.273 552.235 431.412C552.556 431.542 552.829 431.741 553.054 432.01C553.288 432.279 553.409 432.63 553.418 433.063C553.418 433.453 553.31 433.804 553.093 434.116C552.876 434.428 552.569 434.675 552.17 434.857C551.78 435.03 551.329 435.117 550.818 435.117ZM561.588 431.165C561.588 431.39 561.575 431.629 561.549 431.88H555.855C555.898 432.582 556.137 433.132 556.57 433.531C557.012 433.921 557.545 434.116 558.169 434.116C558.68 434.116 559.105 433.999 559.443 433.765C559.79 433.522 560.032 433.202 560.171 432.803H561.445C561.254 433.488 560.873 434.047 560.301 434.48C559.729 434.905 559.018 435.117 558.169 435.117C557.493 435.117 556.886 434.965 556.349 434.662C555.82 434.359 555.404 433.93 555.101 433.375C554.798 432.812 554.646 432.162 554.646 431.425C554.646 430.688 554.793 430.043 555.088 429.488C555.383 428.933 555.794 428.509 556.323 428.214C556.86 427.911 557.476 427.759 558.169 427.759C558.845 427.759 559.443 427.906 559.963 428.201C560.483 428.496 560.882 428.903 561.159 429.423C561.445 429.934 561.588 430.515 561.588 431.165ZM560.366 430.918C560.366 430.467 560.266 430.082 560.067 429.761C559.868 429.432 559.595 429.185 559.248 429.02C558.91 428.847 558.533 428.76 558.117 428.76C557.519 428.76 557.008 428.951 556.583 429.332C556.167 429.713 555.929 430.242 555.868 430.918H560.366ZM564.332 429.033C564.54 428.626 564.835 428.309 565.216 428.084C565.606 427.859 566.079 427.746 566.633 427.746V428.968H566.321C564.995 428.968 564.332 429.687 564.332 431.126V435H563.149V427.876H564.332V429.033ZM570.651 433.908L572.861 427.876H574.122L571.327 435H569.949L567.154 427.876H568.428L570.651 433.908ZM581.786 431.165C581.786 431.39 581.773 431.629 581.747 431.88H576.053C576.096 432.582 576.335 433.132 576.768 433.531C577.21 433.921 577.743 434.116 578.367 434.116C578.878 434.116 579.303 433.999 579.641 433.765C579.988 433.522 580.23 433.202 580.369 432.803H581.643C581.452 433.488 581.071 434.047 580.499 434.48C579.927 434.905 579.216 435.117 578.367 435.117C577.691 435.117 577.084 434.965 576.547 434.662C576.018 434.359 575.602 433.93 575.299 433.375C574.996 432.812 574.844 432.162 574.844 431.425C574.844 430.688 574.991 430.043 575.286 429.488C575.581 428.933 575.992 428.509 576.521 428.214C577.058 427.911 577.674 427.759 578.367 427.759C579.043 427.759 579.641 427.906 580.161 428.201C580.681 428.496 581.08 428.903 581.357 429.423C581.643 429.934 581.786 430.515 581.786 431.165ZM580.564 430.918C580.564 430.467 580.464 430.082 580.265 429.761C580.066 429.432 579.793 429.185 579.446 429.02C579.108 428.847 578.731 428.76 578.315 428.76C577.717 428.76 577.206 428.951 576.781 429.332C576.365 429.713 576.127 430.242 576.066 430.918H580.564ZM582.906 431.412C582.906 430.684 583.053 430.047 583.348 429.501C583.642 428.946 584.045 428.517 584.557 428.214C585.077 427.911 585.657 427.759 586.299 427.759C586.853 427.759 587.369 427.889 587.846 428.149C588.322 428.4 588.686 428.734 588.938 429.15V425.38H590.134V435H588.938V433.661C588.704 434.086 588.357 434.437 587.898 434.714C587.438 434.983 586.901 435.117 586.286 435.117C585.653 435.117 585.077 434.961 584.557 434.649C584.045 434.337 583.642 433.899 583.348 433.336C583.053 432.773 582.906 432.131 582.906 431.412ZM588.938 431.425C588.938 430.888 588.829 430.42 588.613 430.021C588.396 429.622 588.101 429.319 587.729 429.111C587.365 428.894 586.962 428.786 586.52 428.786C586.078 428.786 585.675 428.89 585.311 429.098C584.947 429.306 584.656 429.609 584.44 430.008C584.223 430.407 584.115 430.875 584.115 431.412C584.115 431.958 584.223 432.435 584.44 432.842C584.656 433.241 584.947 433.548 585.311 433.765C585.675 433.973 586.078 434.077 586.52 434.077C586.962 434.077 587.365 433.973 587.729 433.765C588.101 433.548 588.396 433.241 588.613 432.842C588.829 432.435 588.938 431.962 588.938 431.425ZM592.51 435.078C592.285 435.078 592.094 435 591.938 434.844C591.782 434.688 591.704 434.497 591.704 434.272C591.704 434.047 591.782 433.856 591.938 433.7C592.094 433.544 592.285 433.466 592.51 433.466C592.727 433.466 592.909 433.544 593.056 433.7C593.212 433.856 593.29 434.047 593.29 434.272C593.29 434.497 593.212 434.688 593.056 434.844C592.909 435 592.727 435.078 592.51 435.078Z" fill="#B0BAA3"/>
<path opacity="0.6" d="M1313.58 425.939V426.901H1311.11V435H1309.93V426.901H1307.44V425.939H1313.58ZM1321.53 431.165C1321.53 431.39 1321.52 431.629 1321.5 431.88H1315.8C1315.84 432.582 1316.08 433.132 1316.52 433.531C1316.96 433.921 1317.49 434.116 1318.12 434.116C1318.63 434.116 1319.05 433.999 1319.39 433.765C1319.74 433.522 1319.98 433.202 1320.12 432.803H1321.39C1321.2 433.488 1320.82 434.047 1320.25 434.48C1319.68 434.905 1318.96 435.117 1318.12 435.117C1317.44 435.117 1316.83 434.965 1316.3 434.662C1315.77 434.359 1315.35 433.93 1315.05 433.375C1314.74 432.812 1314.59 432.162 1314.59 431.425C1314.59 430.688 1314.74 430.043 1315.03 429.488C1315.33 428.933 1315.74 428.509 1316.27 428.214C1316.81 427.911 1317.42 427.759 1318.12 427.759C1318.79 427.759 1319.39 427.906 1319.91 428.201C1320.43 428.496 1320.83 428.903 1321.11 429.423C1321.39 429.934 1321.53 430.515 1321.53 431.165ZM1320.31 430.918C1320.31 430.467 1320.21 430.082 1320.01 429.761C1319.81 429.432 1319.54 429.185 1319.19 429.02C1318.86 428.847 1318.48 428.76 1318.06 428.76C1317.47 428.76 1316.95 428.951 1316.53 429.332C1316.11 429.713 1315.87 430.242 1315.81 430.918H1320.31ZM1324.28 429.033C1324.49 428.626 1324.78 428.309 1325.16 428.084C1325.55 427.859 1326.03 427.746 1326.58 427.746V428.968H1326.27C1324.94 428.968 1324.28 429.687 1324.28 431.126V435H1323.1V427.876H1324.28V429.033ZM1336.51 427.746C1337.07 427.746 1337.56 427.863 1337.99 428.097C1338.43 428.322 1338.77 428.665 1339.02 429.124C1339.27 429.583 1339.4 430.142 1339.4 430.801V435H1338.23V430.97C1338.23 430.259 1338.05 429.718 1337.7 429.345C1337.35 428.964 1336.88 428.773 1336.28 428.773C1335.66 428.773 1335.17 428.972 1334.81 429.371C1334.45 429.761 1334.26 430.329 1334.26 431.074V435H1333.09V430.97C1333.09 430.259 1332.92 429.718 1332.56 429.345C1332.21 428.964 1331.74 428.773 1331.14 428.773C1330.53 428.773 1330.04 428.972 1329.67 429.371C1329.31 429.761 1329.13 430.329 1329.13 431.074V435H1327.95V427.876H1329.13V428.903C1329.36 428.53 1329.67 428.244 1330.06 428.045C1330.46 427.846 1330.9 427.746 1331.38 427.746C1331.98 427.746 1332.5 427.88 1332.96 428.149C1333.42 428.418 1333.77 428.812 1333.99 429.332C1334.19 428.829 1334.52 428.439 1334.98 428.162C1335.44 427.885 1335.95 427.746 1336.51 427.746ZM1343.86 435.117C1343.31 435.117 1342.83 435.026 1342.39 434.844C1341.96 434.653 1341.62 434.393 1341.36 434.064C1341.11 433.726 1340.97 433.34 1340.95 432.907H1342.17C1342.21 433.262 1342.37 433.553 1342.66 433.778C1342.97 434.003 1343.36 434.116 1343.85 434.116C1344.3 434.116 1344.65 434.016 1344.91 433.817C1345.17 433.618 1345.3 433.366 1345.3 433.063C1345.3 432.751 1345.17 432.521 1344.89 432.374C1344.61 432.218 1344.18 432.066 1343.6 431.919C1343.07 431.78 1342.64 431.642 1342.3 431.503C1341.97 431.356 1341.69 431.143 1341.44 430.866C1341.21 430.58 1341.09 430.207 1341.09 429.748C1341.09 429.384 1341.2 429.05 1341.42 428.747C1341.63 428.444 1341.94 428.205 1342.34 428.032C1342.74 427.85 1343.19 427.759 1343.7 427.759C1344.49 427.759 1345.13 427.958 1345.62 428.357C1346.1 428.756 1346.36 429.302 1346.4 429.995H1345.21C1345.19 429.622 1345.04 429.323 1344.76 429.098C1344.49 428.873 1344.13 428.76 1343.67 428.76C1343.24 428.76 1342.9 428.851 1342.65 429.033C1342.4 429.215 1342.27 429.453 1342.27 429.748C1342.27 429.982 1342.35 430.177 1342.5 430.333C1342.65 430.48 1342.84 430.602 1343.07 430.697C1343.3 430.784 1343.62 430.883 1344.03 430.996C1344.54 431.135 1344.96 431.273 1345.28 431.412C1345.6 431.542 1345.87 431.741 1346.1 432.01C1346.33 432.279 1346.45 432.63 1346.46 433.063C1346.46 433.453 1346.35 433.804 1346.14 434.116C1345.92 434.428 1345.61 434.675 1345.21 434.857C1344.82 435.03 1344.37 435.117 1343.86 435.117ZM1355.7 435.091C1354.86 435.091 1354.1 434.896 1353.4 434.506C1352.71 434.107 1352.16 433.557 1351.75 432.855C1351.35 432.144 1351.15 431.347 1351.15 430.463C1351.15 429.579 1351.35 428.786 1351.75 428.084C1352.16 427.373 1352.71 426.823 1353.4 426.433C1354.1 426.034 1354.86 425.835 1355.7 425.835C1356.55 425.835 1357.33 426.034 1358.02 426.433C1358.71 426.823 1359.26 427.369 1359.66 428.071C1360.06 428.773 1360.25 429.57 1360.25 430.463C1360.25 431.356 1360.06 432.153 1359.66 432.855C1359.26 433.557 1358.71 434.107 1358.02 434.506C1357.33 434.896 1356.55 435.091 1355.7 435.091ZM1355.7 434.064C1356.34 434.064 1356.91 433.917 1357.41 433.622C1357.92 433.327 1358.32 432.907 1358.6 432.361C1358.9 431.815 1359.05 431.182 1359.05 430.463C1359.05 429.735 1358.9 429.102 1358.6 428.565C1358.32 428.019 1357.92 427.599 1357.42 427.304C1356.92 427.009 1356.35 426.862 1355.7 426.862C1355.06 426.862 1354.49 427.009 1353.99 427.304C1353.49 427.599 1353.09 428.019 1352.79 428.565C1352.51 429.102 1352.36 429.735 1352.36 430.463C1352.36 431.182 1352.51 431.815 1352.79 432.361C1353.09 432.907 1353.49 433.327 1353.99 433.622C1354.5 433.917 1355.07 434.064 1355.7 434.064ZM1364.72 428.851H1363.22V435H1362.04V428.851H1361.11V427.876H1362.04V427.369C1362.04 426.572 1362.24 425.991 1362.65 425.627C1363.06 425.254 1363.73 425.068 1364.64 425.068V426.056C1364.12 426.056 1363.75 426.16 1363.53 426.368C1363.32 426.567 1363.22 426.901 1363.22 427.369V427.876H1364.72V428.851ZM1370.72 425.939V431.672C1370.72 432.478 1370.91 433.076 1371.3 433.466C1371.7 433.856 1372.25 434.051 1372.95 434.051C1373.65 434.051 1374.19 433.856 1374.58 433.466C1374.98 433.076 1375.18 432.478 1375.18 431.672V425.939H1376.36V431.659C1376.36 432.413 1376.21 433.05 1375.9 433.57C1375.6 434.081 1375.19 434.463 1374.67 434.714C1374.16 434.965 1373.58 435.091 1372.94 435.091C1372.3 435.091 1371.72 434.965 1371.2 434.714C1370.69 434.463 1370.28 434.081 1369.98 433.57C1369.68 433.05 1369.53 432.413 1369.53 431.659V425.939H1370.72ZM1380.86 435.117C1380.31 435.117 1379.82 435.026 1379.39 434.844C1378.95 434.653 1378.61 434.393 1378.36 434.064C1378.11 433.726 1377.97 433.34 1377.94 432.907H1379.17C1379.2 433.262 1379.36 433.553 1379.66 433.778C1379.96 434.003 1380.36 434.116 1380.84 434.116C1381.29 434.116 1381.65 434.016 1381.91 433.817C1382.17 433.618 1382.3 433.366 1382.3 433.063C1382.3 432.751 1382.16 432.521 1381.88 432.374C1381.6 432.218 1381.18 432.066 1380.6 431.919C1380.07 431.78 1379.63 431.642 1379.3 431.503C1378.97 431.356 1378.68 431.143 1378.44 430.866C1378.2 430.58 1378.09 430.207 1378.09 429.748C1378.09 429.384 1378.19 429.05 1378.41 428.747C1378.63 428.444 1378.94 428.205 1379.33 428.032C1379.73 427.85 1380.19 427.759 1380.7 427.759C1381.49 427.759 1382.12 427.958 1382.61 428.357C1383.1 428.756 1383.36 429.302 1383.39 429.995H1382.21C1382.18 429.622 1382.03 429.323 1381.75 429.098C1381.48 428.873 1381.12 428.76 1380.66 428.76C1380.24 428.76 1379.9 428.851 1379.65 429.033C1379.39 429.215 1379.27 429.453 1379.27 429.748C1379.27 429.982 1379.34 430.177 1379.49 430.333C1379.65 430.48 1379.84 430.602 1380.06 430.697C1380.3 430.784 1380.62 430.883 1381.02 430.996C1381.54 431.135 1381.95 431.273 1382.27 431.412C1382.59 431.542 1382.87 431.741 1383.09 432.01C1383.33 432.279 1383.45 432.63 1383.46 433.063C1383.46 433.453 1383.35 433.804 1383.13 434.116C1382.91 434.428 1382.61 434.675 1382.21 434.857C1381.82 435.03 1381.37 435.117 1380.86 435.117ZM1391.63 431.165C1391.63 431.39 1391.61 431.629 1391.59 431.88H1385.89C1385.94 432.582 1386.17 433.132 1386.61 433.531C1387.05 433.921 1387.58 434.116 1388.21 434.116C1388.72 434.116 1389.14 433.999 1389.48 433.765C1389.83 433.522 1390.07 433.202 1390.21 432.803H1391.48C1391.29 433.488 1390.91 434.047 1390.34 434.48C1389.77 434.905 1389.06 435.117 1388.21 435.117C1387.53 435.117 1386.92 434.965 1386.39 434.662C1385.86 434.359 1385.44 433.93 1385.14 433.375C1384.83 432.812 1384.68 432.162 1384.68 431.425C1384.68 430.688 1384.83 430.043 1385.13 429.488C1385.42 428.933 1385.83 428.509 1386.36 428.214C1386.9 427.911 1387.51 427.759 1388.21 427.759C1388.88 427.759 1389.48 427.906 1390 428.201C1390.52 428.496 1390.92 428.903 1391.2 429.423C1391.48 429.934 1391.63 430.515 1391.63 431.165ZM1390.4 430.918C1390.4 430.467 1390.3 430.082 1390.1 429.761C1389.9 429.432 1389.63 429.185 1389.29 429.02C1388.95 428.847 1388.57 428.76 1388.15 428.76C1387.56 428.76 1387.04 428.951 1386.62 429.332C1386.2 429.713 1385.97 430.242 1385.91 430.918H1390.4Z" fill="#B0BAA3"/>
<path opacity="0.6" d="M1414.56 430.463C1414.56 429.579 1414.76 428.786 1415.16 428.084C1415.56 427.373 1416.1 426.819 1416.78 426.42C1417.48 426.021 1418.24 425.822 1419.08 425.822C1420.07 425.822 1420.93 426.06 1421.67 426.537C1422.41 427.014 1422.94 427.69 1423.28 428.565H1421.87C1421.61 428.019 1421.25 427.599 1420.77 427.304C1420.31 427.009 1419.74 426.862 1419.08 426.862C1418.45 426.862 1417.88 427.009 1417.38 427.304C1416.88 427.599 1416.48 428.019 1416.2 428.565C1415.91 429.102 1415.77 429.735 1415.77 430.463C1415.77 431.182 1415.91 431.815 1416.2 432.361C1416.48 432.898 1416.88 433.314 1417.38 433.609C1417.88 433.904 1418.45 434.051 1419.08 434.051C1419.74 434.051 1420.31 433.908 1420.77 433.622C1421.25 433.327 1421.61 432.907 1421.87 432.361H1423.28C1422.94 433.228 1422.41 433.899 1421.67 434.376C1420.93 434.844 1420.07 435.078 1419.08 435.078C1418.24 435.078 1417.48 434.883 1416.78 434.493C1416.1 434.094 1415.56 433.544 1415.16 432.842C1414.76 432.14 1414.56 431.347 1414.56 430.463ZM1428.15 435.117C1427.48 435.117 1426.88 434.965 1426.33 434.662C1425.79 434.359 1425.37 433.93 1425.06 433.375C1424.75 432.812 1424.6 432.162 1424.6 431.425C1424.6 430.697 1424.76 430.056 1425.07 429.501C1425.39 428.938 1425.82 428.509 1426.37 428.214C1426.91 427.911 1427.53 427.759 1428.2 427.759C1428.88 427.759 1429.49 427.911 1430.03 428.214C1430.58 428.509 1431.01 428.933 1431.32 429.488C1431.64 430.043 1431.8 430.688 1431.8 431.425C1431.8 432.162 1431.64 432.812 1431.31 433.375C1430.99 433.93 1430.55 434.359 1430 434.662C1429.44 434.965 1428.83 435.117 1428.15 435.117ZM1428.15 434.077C1428.57 434.077 1428.97 433.977 1429.35 433.778C1429.72 433.579 1430.02 433.28 1430.24 432.881C1430.48 432.482 1430.59 431.997 1430.59 431.425C1430.59 430.853 1430.48 430.368 1430.26 429.969C1430.03 429.57 1429.74 429.276 1429.37 429.085C1429.01 428.886 1428.61 428.786 1428.19 428.786C1427.76 428.786 1427.36 428.886 1426.99 429.085C1426.64 429.276 1426.35 429.57 1426.13 429.969C1425.92 430.368 1425.81 430.853 1425.81 431.425C1425.81 432.006 1425.91 432.495 1426.12 432.894C1426.34 433.293 1426.62 433.592 1426.98 433.791C1427.34 433.982 1427.73 434.077 1428.15 434.077ZM1434.54 429.189C1434.78 428.782 1435.12 428.444 1435.58 428.175C1436.05 427.898 1436.59 427.759 1437.21 427.759C1437.84 427.759 1438.41 427.911 1438.92 428.214C1439.44 428.517 1439.85 428.946 1440.14 429.501C1440.44 430.047 1440.59 430.684 1440.59 431.412C1440.59 432.131 1440.44 432.773 1440.14 433.336C1439.85 433.899 1439.44 434.337 1438.92 434.649C1438.41 434.961 1437.84 435.117 1437.21 435.117C1436.6 435.117 1436.06 434.983 1435.59 434.714C1435.14 434.437 1434.78 434.094 1434.54 433.687V438.38H1433.36V427.876H1434.54V429.189ZM1439.38 431.412C1439.38 430.875 1439.27 430.407 1439.05 430.008C1438.84 429.609 1438.54 429.306 1438.17 429.098C1437.8 428.89 1437.4 428.786 1436.96 428.786C1436.53 428.786 1436.12 428.894 1435.75 429.111C1435.39 429.319 1435.09 429.627 1434.87 430.034C1434.65 430.433 1434.54 430.896 1434.54 431.425C1434.54 431.962 1434.65 432.435 1434.87 432.842C1435.09 433.241 1435.39 433.548 1435.75 433.765C1436.12 433.973 1436.53 434.077 1436.96 434.077C1437.4 434.077 1437.8 433.973 1438.17 433.765C1438.54 433.548 1438.84 433.241 1439.05 432.842C1439.27 432.435 1439.38 431.958 1439.38 431.412ZM1448.28 427.876L1443.99 438.354H1442.77L1444.17 434.922L1441.3 427.876H1442.61L1444.85 433.648L1447.06 427.876H1448.28ZM1450.65 429.033C1450.86 428.626 1451.15 428.309 1451.54 428.084C1451.93 427.859 1452.4 427.746 1452.95 427.746V428.968H1452.64C1451.31 428.968 1450.65 429.687 1450.65 431.126V435H1449.47V427.876H1450.65V429.033ZM1454.93 426.719C1454.7 426.719 1454.51 426.641 1454.36 426.485C1454.2 426.329 1454.12 426.138 1454.12 425.913C1454.12 425.688 1454.2 425.497 1454.36 425.341C1454.51 425.185 1454.7 425.107 1454.93 425.107C1455.15 425.107 1455.33 425.185 1455.48 425.341C1455.63 425.497 1455.71 425.688 1455.71 425.913C1455.71 426.138 1455.63 426.329 1455.48 426.485C1455.33 426.641 1455.15 426.719 1454.93 426.719ZM1455.5 427.876V435H1454.32V427.876H1455.5ZM1460.46 427.759C1461.07 427.759 1461.61 427.893 1462.07 428.162C1462.54 428.431 1462.88 428.769 1463.11 429.176V427.876H1464.3V435.156C1464.3 435.806 1464.16 436.382 1463.89 436.885C1463.61 437.396 1463.21 437.795 1462.69 438.081C1462.18 438.367 1461.58 438.51 1460.9 438.51C1459.96 438.51 1459.18 438.289 1458.56 437.847C1457.93 437.405 1457.57 436.803 1457.45 436.04H1458.62C1458.75 436.473 1459.02 436.82 1459.43 437.08C1459.84 437.349 1460.33 437.483 1460.9 437.483C1461.55 437.483 1462.08 437.279 1462.48 436.872C1462.9 436.465 1463.11 435.893 1463.11 435.156V433.661C1462.87 434.077 1462.53 434.424 1462.07 434.701C1461.61 434.978 1461.07 435.117 1460.46 435.117C1459.82 435.117 1459.25 434.961 1458.73 434.649C1458.22 434.337 1457.81 433.899 1457.52 433.336C1457.22 432.773 1457.08 432.131 1457.08 431.412C1457.08 430.684 1457.22 430.047 1457.52 429.501C1457.81 428.946 1458.22 428.517 1458.73 428.214C1459.25 427.911 1459.82 427.759 1460.46 427.759ZM1463.11 431.425C1463.11 430.888 1463 430.42 1462.78 430.021C1462.57 429.622 1462.27 429.319 1461.9 429.111C1461.53 428.894 1461.13 428.786 1460.69 428.786C1460.25 428.786 1459.84 428.89 1459.48 429.098C1459.12 429.306 1458.83 429.609 1458.61 430.008C1458.39 430.407 1458.28 430.875 1458.28 431.412C1458.28 431.958 1458.39 432.435 1458.61 432.842C1458.83 433.241 1459.12 433.548 1459.48 433.765C1459.84 433.973 1460.25 434.077 1460.69 434.077C1461.13 434.077 1461.53 433.973 1461.9 433.765C1462.27 433.548 1462.57 433.241 1462.78 432.842C1463 432.435 1463.11 431.962 1463.11 431.425ZM1469.84 427.746C1470.38 427.746 1470.86 427.863 1471.29 428.097C1471.73 428.322 1472.07 428.665 1472.31 429.124C1472.56 429.583 1472.69 430.142 1472.69 430.801V435H1471.52V430.97C1471.52 430.259 1471.34 429.718 1470.98 429.345C1470.63 428.964 1470.14 428.773 1469.53 428.773C1468.9 428.773 1468.4 428.968 1468.03 429.358C1467.67 429.748 1467.49 430.316 1467.49 431.061V435H1466.3V425.38H1467.49V428.89C1467.72 428.526 1468.04 428.244 1468.45 428.045C1468.86 427.846 1469.33 427.746 1469.84 427.746ZM1476.06 428.851V433.05C1476.06 433.397 1476.13 433.644 1476.28 433.791C1476.43 433.93 1476.69 433.999 1477.05 433.999H1477.92V435H1476.85C1476.2 435 1475.7 434.848 1475.37 434.545C1475.04 434.242 1474.88 433.743 1474.88 433.05V428.851H1473.96V427.876H1474.88V426.082H1476.06V427.876H1477.92V428.851H1476.06ZM1489.77 435L1488.59 433.804C1488.15 434.263 1487.68 434.606 1487.17 434.831C1486.67 435.048 1486.1 435.156 1485.47 435.156C1484.85 435.156 1484.29 435.043 1483.81 434.818C1483.33 434.593 1482.96 434.272 1482.69 433.856C1482.43 433.44 1482.3 432.955 1482.3 432.4C1482.3 431.767 1482.48 431.213 1482.83 430.736C1483.2 430.251 1483.73 429.869 1484.43 429.592C1484.15 429.263 1483.95 428.959 1483.83 428.682C1483.71 428.405 1483.65 428.101 1483.65 427.772C1483.65 427.391 1483.75 427.048 1483.94 426.745C1484.14 426.433 1484.42 426.19 1484.78 426.017C1485.15 425.844 1485.57 425.757 1486.04 425.757C1486.51 425.757 1486.92 425.848 1487.27 426.03C1487.61 426.212 1487.87 426.468 1488.05 426.797C1488.22 427.118 1488.3 427.477 1488.28 427.876H1487.1C1487.11 427.521 1487.01 427.243 1486.8 427.044C1486.59 426.836 1486.32 426.732 1485.99 426.732C1485.64 426.732 1485.36 426.832 1485.15 427.031C1484.94 427.222 1484.83 427.469 1484.83 427.772C1484.83 428.032 1484.9 428.283 1485.04 428.526C1485.19 428.769 1485.43 429.068 1485.77 429.423L1488.47 432.14L1488.71 431.776L1489.59 430.294H1490.87L1489.8 432.14C1489.65 432.4 1489.48 432.673 1489.28 432.959L1491.32 435H1489.77ZM1485.47 434.142C1485.94 434.142 1486.36 434.051 1486.73 433.869C1487.11 433.687 1487.47 433.405 1487.81 433.024L1485.15 430.346C1484.04 430.771 1483.48 431.442 1483.48 432.361C1483.48 432.872 1483.66 433.297 1484.03 433.635C1484.4 433.973 1484.88 434.142 1485.47 434.142ZM1501.47 425.939V426.901H1499V435H1497.82V426.901H1495.34V425.939H1501.47ZM1504.11 429.033C1504.32 428.626 1504.61 428.309 1505 428.084C1505.39 427.859 1505.86 427.746 1506.41 427.746V428.968H1506.1C1504.77 428.968 1504.11 429.687 1504.11 431.126V435H1502.93V427.876H1504.11V429.033ZM1507.34 431.412C1507.34 430.684 1507.48 430.047 1507.78 429.501C1508.07 428.946 1508.48 428.517 1508.99 428.214C1509.51 427.911 1510.08 427.759 1510.72 427.759C1511.34 427.759 1511.88 427.893 1512.34 428.162C1512.8 428.431 1513.14 428.769 1513.37 429.176V427.876H1514.56V435H1513.37V433.674C1513.13 434.09 1512.78 434.437 1512.32 434.714C1511.86 434.983 1511.32 435.117 1510.7 435.117C1510.07 435.117 1509.5 434.961 1508.99 434.649C1508.48 434.337 1508.07 433.899 1507.78 433.336C1507.48 432.773 1507.34 432.131 1507.34 431.412ZM1513.37 431.425C1513.37 430.888 1513.26 430.42 1513.04 430.021C1512.83 429.622 1512.53 429.319 1512.16 429.111C1511.8 428.894 1511.39 428.786 1510.95 428.786C1510.51 428.786 1510.11 428.89 1509.74 429.098C1509.38 429.306 1509.09 429.609 1508.87 430.008C1508.65 430.407 1508.55 430.875 1508.55 431.412C1508.55 431.958 1508.65 432.435 1508.87 432.842C1509.09 433.241 1509.38 433.548 1509.74 433.765C1510.11 433.973 1510.51 434.077 1510.95 434.077C1511.39 434.077 1511.8 433.973 1512.16 433.765C1512.53 433.548 1512.83 433.241 1513.04 432.842C1513.26 432.435 1513.37 431.962 1513.37 431.425ZM1516.12 431.412C1516.12 430.684 1516.27 430.047 1516.56 429.501C1516.86 428.946 1517.26 428.517 1517.77 428.214C1518.29 427.911 1518.87 427.759 1519.51 427.759C1520.07 427.759 1520.58 427.889 1521.06 428.149C1521.54 428.4 1521.9 428.734 1522.15 429.15V425.38H1523.35V435H1522.15V433.661C1521.92 434.086 1521.57 434.437 1521.11 434.714C1520.65 434.983 1520.12 435.117 1519.5 435.117C1518.87 435.117 1518.29 434.961 1517.77 434.649C1517.26 434.337 1516.86 433.899 1516.56 433.336C1516.27 432.773 1516.12 432.131 1516.12 431.412ZM1522.15 431.425C1522.15 430.888 1522.05 430.42 1521.83 430.021C1521.61 429.622 1521.32 429.319 1520.94 429.111C1520.58 428.894 1520.18 428.786 1519.74 428.786C1519.29 428.786 1518.89 428.89 1518.53 429.098C1518.16 429.306 1517.87 429.609 1517.66 430.008C1517.44 430.407 1517.33 430.875 1517.33 431.412C1517.33 431.958 1517.44 432.435 1517.66 432.842C1517.87 433.241 1518.16 433.548 1518.53 433.765C1518.89 433.973 1519.29 434.077 1519.74 434.077C1520.18 434.077 1520.58 433.973 1520.94 433.765C1521.32 433.548 1521.61 433.241 1521.83 432.842C1522.05 432.435 1522.15 431.962 1522.15 431.425ZM1531.85 431.165C1531.85 431.39 1531.84 431.629 1531.81 431.88H1526.12C1526.16 432.582 1526.4 433.132 1526.83 433.531C1527.27 433.921 1527.81 434.116 1528.43 434.116C1528.94 434.116 1529.37 433.999 1529.7 433.765C1530.05 433.522 1530.29 433.202 1530.43 432.803H1531.71C1531.51 433.488 1531.13 434.047 1530.56 434.48C1529.99 434.905 1529.28 435.117 1528.43 435.117C1527.75 435.117 1527.15 434.965 1526.61 434.662C1526.08 434.359 1525.66 433.93 1525.36 433.375C1525.06 432.812 1524.91 432.162 1524.91 431.425C1524.91 430.688 1525.05 430.043 1525.35 429.488C1525.64 428.933 1526.05 428.509 1526.58 428.214C1527.12 427.911 1527.74 427.759 1528.43 427.759C1529.11 427.759 1529.7 427.906 1530.22 428.201C1530.74 428.496 1531.14 428.903 1531.42 429.423C1531.71 429.934 1531.85 430.515 1531.85 431.165ZM1530.63 430.918C1530.63 430.467 1530.53 430.082 1530.33 429.761C1530.13 429.432 1529.86 429.185 1529.51 429.02C1529.17 428.847 1528.79 428.76 1528.38 428.76C1527.78 428.76 1527.27 428.951 1526.84 429.332C1526.43 429.713 1526.19 430.242 1526.13 430.918H1530.63ZM1541.98 427.746C1542.53 427.746 1543.03 427.863 1543.46 428.097C1543.89 428.322 1544.23 428.665 1544.49 429.124C1544.74 429.583 1544.86 430.142 1544.86 430.801V435H1543.69V430.97C1543.69 430.259 1543.52 429.718 1543.16 429.345C1542.81 428.964 1542.34 428.773 1541.74 428.773C1541.13 428.773 1540.64 428.972 1540.27 429.371C1539.91 429.761 1539.73 430.329 1539.73 431.074V435H1538.56V430.97C1538.56 430.259 1538.38 429.718 1538.03 429.345C1537.68 428.964 1537.21 428.773 1536.61 428.773C1535.99 428.773 1535.5 428.972 1535.14 429.371C1534.78 429.761 1534.59 430.329 1534.59 431.074V435H1533.41V427.876H1534.59V428.903C1534.83 428.53 1535.14 428.244 1535.53 428.045C1535.93 427.846 1536.37 427.746 1536.84 427.746C1537.44 427.746 1537.97 427.88 1538.43 428.149C1538.89 428.418 1539.23 428.812 1539.46 429.332C1539.65 428.829 1539.98 428.439 1540.44 428.162C1540.9 427.885 1541.41 427.746 1541.98 427.746ZM1546.36 431.412C1546.36 430.684 1546.51 430.047 1546.8 429.501C1547.1 428.946 1547.5 428.517 1548.01 428.214C1548.53 427.911 1549.11 427.759 1549.74 427.759C1550.37 427.759 1550.91 427.893 1551.37 428.162C1551.83 428.431 1552.17 428.769 1552.39 429.176V427.876H1553.59V435H1552.39V433.674C1552.16 434.09 1551.81 434.437 1551.34 434.714C1550.88 434.983 1550.34 435.117 1549.73 435.117C1549.1 435.117 1548.52 434.961 1548.01 434.649C1547.5 434.337 1547.1 433.899 1546.8 433.336C1546.51 432.773 1546.36 432.131 1546.36 431.412ZM1552.39 431.425C1552.39 430.888 1552.29 430.42 1552.07 430.021C1551.85 429.622 1551.56 429.319 1551.18 429.111C1550.82 428.894 1550.42 428.786 1549.98 428.786C1549.53 428.786 1549.13 428.89 1548.77 429.098C1548.4 429.306 1548.11 429.609 1547.9 430.008C1547.68 430.407 1547.57 430.875 1547.57 431.412C1547.57 431.958 1547.68 432.435 1547.9 432.842C1548.11 433.241 1548.4 433.548 1548.77 433.765C1549.13 433.973 1549.53 434.077 1549.98 434.077C1550.42 434.077 1550.82 433.973 1551.18 433.765C1551.56 433.548 1551.85 433.241 1552.07 432.842C1552.29 432.435 1552.39 431.962 1552.39 431.425ZM1556.77 429.033C1556.98 428.626 1557.27 428.309 1557.66 428.084C1558.05 427.859 1558.52 427.746 1559.07 427.746V428.968H1558.76C1557.43 428.968 1556.77 429.687 1556.77 431.126V435H1555.59V427.876H1556.77V429.033ZM1564.42 435L1561.62 431.854V435H1560.44V425.38H1561.62V431.035L1564.36 427.876H1566.02L1562.66 431.425L1566.03 435H1564.42Z" fill="#B0BAA3"/>
<path opacity="0.6" d="M1590.06 428.591C1590.06 429.345 1589.8 429.973 1589.28 430.476C1588.77 430.97 1587.98 431.217 1586.93 431.217H1585.18V435H1584V425.939H1586.93C1587.95 425.939 1588.72 426.186 1589.25 426.68C1589.79 427.174 1590.06 427.811 1590.06 428.591ZM1586.93 430.242C1587.58 430.242 1588.07 430.099 1588.38 429.813C1588.69 429.527 1588.85 429.12 1588.85 428.591C1588.85 427.473 1588.21 426.914 1586.93 426.914H1585.18V430.242H1586.93ZM1594.64 435.117C1593.97 435.117 1593.36 434.965 1592.82 434.662C1592.28 434.359 1591.85 433.93 1591.54 433.375C1591.24 432.812 1591.09 432.162 1591.09 431.425C1591.09 430.697 1591.24 430.056 1591.56 429.501C1591.88 428.938 1592.31 428.509 1592.86 428.214C1593.4 427.911 1594.01 427.759 1594.69 427.759C1595.36 427.759 1595.98 427.911 1596.52 428.214C1597.07 428.509 1597.5 428.933 1597.81 429.488C1598.13 430.043 1598.29 430.688 1598.29 431.425C1598.29 432.162 1598.12 432.812 1597.8 433.375C1597.47 433.93 1597.04 434.359 1596.48 434.662C1595.93 434.965 1595.31 435.117 1594.64 435.117ZM1594.64 434.077C1595.06 434.077 1595.46 433.977 1595.83 433.778C1596.2 433.579 1596.5 433.28 1596.73 432.881C1596.96 432.482 1597.08 431.997 1597.08 431.425C1597.08 430.853 1596.97 430.368 1596.74 429.969C1596.52 429.57 1596.22 429.276 1595.86 429.085C1595.49 428.886 1595.1 428.786 1594.68 428.786C1594.24 428.786 1593.84 428.886 1593.48 429.085C1593.12 429.276 1592.84 429.57 1592.62 429.969C1592.4 430.368 1592.3 430.853 1592.3 431.425C1592.3 432.006 1592.4 432.495 1592.61 432.894C1592.82 433.293 1593.11 433.592 1593.47 433.791C1593.82 433.982 1594.21 434.077 1594.64 434.077ZM1601.03 425.38V435H1599.84V425.38H1601.03ZM1603.65 426.719C1603.43 426.719 1603.24 426.641 1603.08 426.485C1602.93 426.329 1602.85 426.138 1602.85 425.913C1602.85 425.688 1602.93 425.497 1603.08 425.341C1603.24 425.185 1603.43 425.107 1603.65 425.107C1603.87 425.107 1604.05 425.185 1604.2 425.341C1604.36 425.497 1604.43 425.688 1604.43 425.913C1604.43 426.138 1604.36 426.329 1604.2 426.485C1604.05 426.641 1603.87 426.719 1603.65 426.719ZM1604.23 427.876V435H1603.04V427.876H1604.23ZM1605.8 431.425C1605.8 430.688 1605.95 430.047 1606.24 429.501C1606.54 428.946 1606.95 428.517 1607.47 428.214C1607.99 427.911 1608.6 427.759 1609.27 427.759C1610.15 427.759 1610.87 427.971 1611.43 428.396C1612 428.821 1612.38 429.41 1612.56 430.164H1611.29C1611.17 429.731 1610.93 429.388 1610.57 429.137C1610.23 428.886 1609.79 428.76 1609.27 428.76C1608.6 428.76 1608.05 428.994 1607.63 429.462C1607.22 429.921 1607.01 430.576 1607.01 431.425C1607.01 432.283 1607.22 432.946 1607.63 433.414C1608.05 433.882 1608.6 434.116 1609.27 434.116C1609.79 434.116 1610.23 433.995 1610.57 433.752C1610.92 433.509 1611.16 433.163 1611.29 432.712H1612.56C1612.37 433.44 1611.99 434.025 1611.42 434.467C1610.85 434.9 1610.13 435.117 1609.27 435.117C1608.6 435.117 1607.99 434.965 1607.47 434.662C1606.95 434.359 1606.54 433.93 1606.24 433.375C1605.95 432.82 1605.8 432.17 1605.8 431.425ZM1620.28 427.876L1615.99 438.354H1614.76L1616.17 434.922L1613.29 427.876H1614.61L1616.84 433.648L1619.05 427.876H1620.28Z" fill="#B0BAA3"/>
<path opacity="0.4" d="M0 374L1925 374" stroke="#4A4E1C"/>
<path d="M15.8443 98.3951C19.9718 106.173 25.2461 111.287 31.5483 113.531C37.7195 115.769 44.3291 115.107 52.5561 111.606C57.142 109.646 57.535 109.666 65.1631 111.712L68.3323 112.536L73.1842 123.538C80.6426 140.316 89.2464 156.62 97.5923 169.592C99.3927 172.405 100.759 174.798 100.554 174.921C100.207 175.235 90.7795 171.439 85.3568 168.774C79.1027 165.736 70.5817 159.993 65.3448 155.346C59.6735 150.278 57.4454 149.103 52.8607 148.871C46.2458 148.537 39.1256 153.29 36.5632 159.8C35.1598 163.448 35.4217 169.968 37.1486 172.91C40.3071 178.249 52.7177 188.106 65.1082 195.041C71.9691 198.907 85.0293 204.547 94.6196 207.821L96.6793 208.523L90.0977 215.228L83.5162 221.934L77.5321 222.03C56.547 222.496 44.2594 232.299 40.2642 251.619C38.2993 261.281 38.6642 268.271 41.2613 269.863C41.9577 270.297 45.6708 270.816 49.539 270.946C61.725 271.495 71.4263 268.599 78.3728 262.377C85.0452 256.34 88.6087 248.486 90.206 236.216L91.0735 229.487L99.8992 220.438C106.971 213.226 108.983 211.469 110.011 211.853C110.719 212.088 115.853 213.011 121.384 213.888L131.468 215.527L138.563 223.123C183.091 271.058 242.74 310.129 303.546 331.197C319.308 336.708 324.412 337.033 329.577 333.111C333.437 330.119 335.43 326.501 336.148 321.159C336.792 315.946 336.072 312.656 333.51 309.406C331.017 306.092 329.17 305.136 319.764 302.071C304.04 297.026 282.203 287.689 265.971 279.099C260.941 276.454 259.241 275.24 259.359 274.382C259.464 273.724 260.927 268.021 262.556 261.729C267.665 242.466 268.94 234.429 270.319 211.657C271.611 190.342 271.476 183.894 269.626 167.798C268.368 157.111 266.74 148.197 264.214 137.844L262.432 130.384L267.472 118.753L272.509 107.188L279.32 104.279C290.043 99.7084 297.589 92.2548 300.493 83.3712C303.139 75.4706 302.345 62.5489 298.637 53.2646C295.968 46.3569 293.36 46.0258 282.028 50.8977C271.506 55.4121 263.845 62.5944 260.781 70.8723C257.873 78.7596 258.159 91.39 261.486 100.456L262.558 103.365L260.342 108.499C259.117 111.358 257.974 113.957 257.762 114.212C257.545 114.533 255.383 110.107 252.903 104.404C245.079 86.0807 233.991 67.393 229.186 64.2949C220.072 58.5885 207.451 64.1256 204.555 75.068C203.439 79.3939 204.082 82.8792 206.895 87.4039C220.741 109.352 228.988 128.294 233.951 149.395L235.248 155.104L233.423 152.688C229.229 147.098 226.235 142.298 223.128 136.099C218.787 127.513 216.276 125.593 208.809 125.216L203.832 124.964L197.806 114.899L191.777 104.899L192.97 100.378C194.575 94.4834 195.189 84.3552 194.245 79.3275C191.827 67.1869 182.917 58.1045 168.241 53.1129C161.808 50.862 158.001 50.8024 156.17 52.8346C153.064 56.3959 150.153 71.9191 151.12 79.8032C152.246 89.4217 158.454 98.6332 167.02 103.648C171.271 106.12 179.151 109.44 180.919 109.53C181.836 109.576 186.433 116.116 186.365 117.242C186.352 117.44 185.088 117.708 183.508 117.761C181.134 117.907 180.237 117.53 177.287 115.256C171.576 110.85 167.6 109.255 161.247 108.934C156.597 108.698 155.074 108.887 151.977 110.125C147.056 112.2 141.764 116.049 138.229 120.187C133.479 125.922 134.175 128.547 142.152 134.594C148.371 139.291 152.74 140.907 159.51 140.85C166.411 140.801 170.257 139.136 177.396 132.99C182.319 128.724 182.998 128.36 186.362 128.131C188.343 127.966 190.59 127.747 191.388 127.589C192.386 127.373 193.082 127.807 193.735 128.969C194.625 130.541 194.609 130.806 193.22 133.126C192.048 135.125 191.694 136.634 191.65 140.616C191.565 145.26 191.779 146.068 194.701 152.058C203.639 170.438 218.116 186.309 234.312 195.495L239.268 198.268L238.775 206.411C238.338 213.626 238.405 214.692 239.553 216.344C241.185 218.684 245.168 219.084 247.392 217.072C248.782 215.814 248.884 215.222 249.279 204.352C249.67 195.74 249.531 192.612 248.928 191.718C248.44 191.096 244.901 188.792 241.022 186.671C225.383 178.045 213.038 164.938 204.728 148.117C203.091 144.78 201.97 141.603 202.042 140.411C202.202 137.763 205.109 135.321 207.926 135.463C210.414 135.589 211.517 136.906 214.861 143.516C218.202 150.192 221.88 155.624 227.102 161.598C236.079 171.746 242.674 175.665 246.01 172.647C247.956 170.886 248.115 167.176 246.672 158.471C242.392 133.686 232.868 108.703 219.576 87.381C217 83.2668 214.752 79.1691 214.608 78.2986C214.212 76.1538 218.39 72.2482 220.945 72.3774C223.237 72.4933 224.766 74.3634 230.783 84.5612C247.958 113.384 257.756 145.751 260.426 181.941C260.921 188.938 260.799 195.307 259.88 210.466C258.405 234.826 256.283 247.069 249.724 268.583C246.198 280.158 246.24 280.558 251.765 283.693C268.392 293.365 297.31 306.181 316.191 312.248C324.241 314.913 325.7 315.784 326.194 318.465C326.639 320.878 324.446 324.551 322.383 324.978C317.53 325.928 288.5 314.965 264.069 302.907C218.775 280.631 177.739 249.871 143.908 212.969L137.009 205.382L129.972 204.429C96.8611 200.099 65.6014 186.899 49.2652 170.269C46.5398 167.542 46.068 166.655 46.1843 164.735C46.3687 161.69 48.9444 159.297 51.8262 159.443C53.2671 159.516 54.9138 160.529 57.7207 162.995C69.5592 173.619 82.9161 180.868 101.228 186.575C112.832 190.216 115.444 190.481 117.537 188.462C120.399 185.685 119.877 183.467 114.259 175.348C91.6109 142.53 74.4006 104.543 63.7237 63.8974C62.0623 57.7046 60.2993 52.1043 59.8114 51.4821C58.4053 49.751 54.2096 49.6052 52.4025 51.2403C51.6379 51.932 50.9602 53.3586 50.8881 54.5501C50.7277 57.198 56.1316 77.524 60.4128 90.3564C62.6356 97.0424 63.4255 100.269 62.7866 99.9716C62.2747 99.7465 61.3043 99.4983 60.6494 99.4651C59.9289 99.4287 58.3918 97.691 56.7143 95.0166C48.5155 81.7869 36.6944 78.4669 21.6479 85.0101C13.147 88.6971 12.0777 91.1663 15.8443 98.3951ZM34.0104 92.4079C38.2422 91.9579 41.4407 93.3812 45.0108 97.3465C46.6709 99.2232 48.073 101.021 48.053 101.351C48.0009 102.212 43.4389 103.774 40.0011 104.132C36.0968 104.598 32.2754 102.612 28.7868 98.3854L25.8516 94.7842L28.4781 93.7218C29.9551 93.1989 32.488 92.5966 34.0104 92.4079ZM51.1524 251.904C53.442 243.388 57.5121 238.016 63.9225 235.219C66.7575 233.968 75.5271 232.353 78.5399 232.505C80.5047 232.605 80.5301 233.27 78.7791 240.486C76.7515 249.015 72.9394 254.466 67.0489 257.356C62.9213 259.338 56.8651 260.626 52.7389 260.417C49.7917 260.268 49.6032 260.126 49.6954 258.603C49.7516 257.676 50.3945 254.654 51.1524 251.904ZM153.469 121.289C158.029 118.664 162.622 118.764 167.505 121.667C169.344 122.756 170.852 123.894 170.832 124.225C170.775 125.152 165.893 128.756 163.54 129.633C159.24 131.209 155.347 130.414 149.772 127.012C147.748 125.714 147.687 125.645 148.876 124.443C149.506 123.811 151.628 122.391 153.469 121.289ZM162.454 66.233C162.873 64.727 163.289 63.2873 163.494 63.1648C164.189 62.5359 171.917 66.1803 175.44 68.7488C182.798 74.1672 185.053 80.3236 183.778 91.6135C183.353 95.3768 182.899 98.541 182.756 98.733C182.339 99.1103 175.995 96.4656 172.694 94.5723C169.335 92.5433 164.757 87.863 163.542 85.1456C161.231 79.916 160.808 72.7898 162.454 66.233ZM271.41 73.2688C272.308 71.455 273.963 69.0819 275.083 67.9433C277.262 65.5967 283.957 61.3536 287.386 60.0662L289.669 59.252L290.569 62.8167C291.047 64.7 291.449 68.9036 291.391 72.0214C291.357 80.1869 289.9 83.6324 284.413 88.5342C280.382 92.1816 272.087 96.8086 271.222 95.9017C270.303 94.7928 269.13 85.9687 269.403 81.4673C269.57 77.6246 270.009 75.7876 271.41 73.2688Z" fill="#0B2E10"/>
<path d="M43.6101 17.9062C44.9329 27.4498 45.5144 28.672 49.1083 28.8538C51.4607 28.9728 53.2851 28.071 54.3693 26.4028C55.0254 25.3094 54.904 22.9838 53.9105 15.5775C52.517 5.03634 52.833 3.06421 55.8002 1.69006C58.498 0.434829 60.0583 0.646281 61.9759 2.53257C63.4029 3.86387 63.8296 5.47594 65.1485 15.0856C69.3985 46.6464 77.1664 76.397 88.207 104.06C96.9205 125.773 110.551 150.718 125.091 171.467C141.68 195.169 164.851 220.596 187.544 239.835C204.935 254.632 228.446 271.195 232.366 271.394C235.045 271.529 237.11 269.91 237.931 267.169C240.688 257.368 243.54 245.981 243.66 243.999C243.92 239.704 238.972 237.002 235.406 239.605C234.239 240.474 233.531 242.426 231.877 249.168C230.674 253.879 229.719 257.741 229.711 257.873C229.687 258.269 223.143 253.763 213.047 246.228C191.845 230.51 176.517 216.282 158.114 195.47C129.098 162.657 109.316 129.979 94.3601 90.123L91.6436 83.0272L97.878 72.0766L104.112 61.1259L109.563 59.8774C129.698 55.329 143.785 43.5164 148.359 27.5115C150.453 19.9963 150.717 5.89405 148.848 -2.21915C146.767 -11.1384 146.047 -12.2351 142.338 -12.6878C137 -13.2891 124.798 -9.86374 115.86 -5.14668C110.648 -2.42809 103.603 3.51127 100.599 7.66689C95.0137 15.4694 92.1811 26.5258 92.7839 38.2199C93.0053 42.141 93.6 47.4727 94.1588 50.1518L95.1776 54.9748L91.2009 62.196L87.2242 69.4171L84.1957 57.7329C80.4324 43.0294 77.6213 28.8379 75.3876 12.6875C73.3846 -1.86071 72.4671 -4.02777 67.2729 -7.00755C61.2532 -10.4267 52.6824 -9.60103 47.4975 -5.15807C42.3819 -0.777869 41.5871 3.68831 43.6101 17.9062ZM104.581 24.1708C107.105 14.9543 113.577 7.66056 123.291 3.11529C127.943 0.964878 137.304 -2.07405 137.729 -1.52237C138.653 -0.547848 139.504 7.05 139.459 13.2108C139.348 25.8629 136.367 32.8693 128.359 39.5552C123.533 43.4862 114.889 47.6879 108.239 49.2734L104.781 50.0926L104.059 44.6882C103.651 41.6854 103.247 38.6165 103.16 37.8832C102.756 34.8143 103.41 28.3529 104.581 24.1708Z" fill="#0B2E10"/>
</g>
</svg>
