<svg width="357" height="337" viewBox="0 0 357 337" fill="none" xmlns="http://www.w3.org/2000/svg">
<path d="M15.8443 98.3951C19.9718 106.173 25.2461 111.287 31.5483 113.531C37.7195 115.769 44.3291 115.107 52.5561 111.606C57.1421 109.646 57.535 109.666 65.1632 111.712L68.3323 112.536L73.1842 123.538C80.6426 140.316 89.2464 156.62 97.5923 169.592C99.3927 172.405 100.759 174.798 100.554 174.921C100.207 175.235 90.7795 171.439 85.3568 168.774C79.1027 165.736 70.5817 159.993 65.3449 155.346C59.6735 150.278 57.4454 149.103 52.8608 148.871C46.2458 148.537 39.1256 153.29 36.5632 159.8C35.1598 163.448 35.4217 169.968 37.1486 172.91C40.3071 178.249 52.7177 188.106 65.1082 195.041C71.9691 198.907 85.0293 204.547 94.6196 207.821L96.6793 208.523L90.0977 215.228L83.5162 221.934L77.5321 222.03C56.547 222.496 44.2594 232.299 40.2642 251.619C38.2993 261.281 38.6642 268.271 41.2613 269.863C41.9577 270.297 45.6708 270.816 49.539 270.946C61.7251 271.495 71.4263 268.599 78.3728 262.377C85.0452 256.34 88.6087 248.486 90.206 236.216L91.0735 229.487L99.8992 220.438C106.971 213.226 108.983 211.469 110.011 211.853C110.719 212.088 115.853 213.011 121.384 213.888L131.468 215.527L138.563 223.123C183.091 271.058 242.74 310.129 303.546 331.197C319.308 336.708 324.412 337.033 329.577 333.111C333.437 330.119 335.43 326.501 336.148 321.159C336.792 315.946 336.072 312.656 333.51 309.406C331.017 306.092 329.17 305.136 319.764 302.071C304.04 297.026 282.203 287.689 265.971 279.099C260.941 276.454 259.241 275.24 259.359 274.382C259.464 273.724 260.927 268.021 262.556 261.729C267.665 242.466 268.94 234.429 270.319 211.657C271.611 190.342 271.476 183.894 269.626 167.798C268.368 157.111 266.74 148.197 264.214 137.844L262.432 130.384L267.472 118.753L272.509 107.188L279.32 104.279C290.043 99.7084 297.589 92.2548 300.493 83.3712C303.139 75.4706 302.345 62.5489 298.637 53.2646C295.968 46.3569 293.36 46.0259 282.028 50.8977C271.506 55.4121 263.845 62.5944 260.781 70.8723C257.873 78.7596 258.159 91.39 261.486 100.456L262.558 103.365L260.342 108.499C259.117 111.358 257.974 113.957 257.762 114.212C257.545 114.533 255.383 110.107 252.903 104.404C245.079 86.0807 233.991 67.393 229.186 64.2949C220.072 58.5885 207.451 64.1256 204.555 75.0679C203.439 79.3939 204.082 82.8792 206.895 87.4039C220.741 109.352 228.988 128.294 233.951 149.395L235.248 155.104L233.423 152.688C229.229 147.098 226.235 142.298 223.128 136.099C218.787 127.513 216.276 125.593 208.809 125.216L203.832 124.964L197.806 114.899L191.777 104.899L192.97 100.378C194.575 94.4834 195.189 84.3552 194.245 79.3275C191.827 67.1869 182.917 58.1044 168.241 53.1129C161.808 50.862 158.001 50.8024 156.17 52.8346C153.064 56.3959 150.153 71.9191 151.12 79.8032C152.246 89.4217 158.454 98.6332 167.02 103.648C171.271 106.12 179.151 109.44 180.919 109.53C181.836 109.576 186.433 116.116 186.365 117.242C186.352 117.44 185.088 117.708 183.508 117.761C181.134 117.907 180.237 117.53 177.287 115.256C171.576 110.85 167.6 109.255 161.247 108.934C156.597 108.698 155.074 108.887 151.977 110.125C147.056 112.2 141.764 116.049 138.229 120.187C133.479 125.922 134.175 128.547 142.152 134.594C148.371 139.291 152.74 140.907 159.51 140.85C166.411 140.801 170.257 139.136 177.396 132.99C182.319 128.724 182.998 128.36 186.362 128.131C188.343 127.966 190.59 127.747 191.388 127.589C192.386 127.373 193.082 127.807 193.735 128.969C194.625 130.541 194.609 130.806 193.22 133.126C192.048 135.125 191.694 136.634 191.65 140.616C191.565 145.26 191.779 146.068 194.701 152.058C203.639 170.438 218.116 186.309 234.312 195.495L239.268 198.268L238.775 206.411C238.338 213.626 238.405 214.692 239.553 216.344C241.185 218.684 245.168 219.084 247.392 217.072C248.782 215.814 248.884 215.222 249.279 204.352C249.67 195.74 249.531 192.612 248.928 191.718C248.44 191.096 244.901 188.792 241.022 186.671C225.383 178.045 213.038 164.938 204.728 148.117C203.091 144.78 201.97 141.603 202.042 140.411C202.202 137.763 205.109 135.321 207.926 135.463C210.414 135.589 211.517 136.906 214.861 143.516C218.202 150.192 221.88 155.624 227.102 161.598C236.079 171.746 242.674 175.665 246.01 172.647C247.956 170.886 248.115 167.176 246.672 158.471C242.392 133.686 232.868 108.703 219.576 87.381C217 83.2667 214.752 79.1691 214.608 78.2986C214.212 76.1538 218.39 72.2482 220.945 72.3774C223.237 72.4933 224.766 74.3634 230.783 84.5612C247.958 113.384 257.756 145.751 260.426 181.941C260.921 188.938 260.799 195.307 259.88 210.466C258.405 234.826 256.283 247.069 249.724 268.583C246.198 280.158 246.24 280.558 251.765 283.693C268.392 293.365 297.31 306.181 316.191 312.248C324.241 314.913 325.7 315.784 326.194 318.465C326.639 320.878 324.446 324.551 322.383 324.978C317.53 325.928 288.5 314.965 264.069 302.907C218.775 280.631 177.739 249.871 143.908 212.969L137.009 205.382L129.972 204.429C96.8611 200.099 65.6014 186.899 49.2652 170.269C46.5398 167.542 46.068 166.655 46.1843 164.735C46.3687 161.69 48.9444 159.297 51.8262 159.443C53.2671 159.516 54.9138 160.529 57.7207 162.995C69.5592 173.619 82.9161 180.868 101.228 186.575C112.832 190.216 115.444 190.481 117.537 188.462C120.399 185.685 119.877 183.467 114.259 175.348C91.6109 142.53 74.4006 104.543 63.7237 63.8974C62.0622 57.7046 60.2993 52.1043 59.8114 51.4821C58.4053 49.7509 54.2096 49.6053 52.4025 51.2403C51.6379 51.932 50.9602 53.3586 50.8881 54.5501C50.7277 57.198 56.1316 77.524 60.4128 90.3564C62.6356 97.0424 63.4256 100.27 62.7866 99.9716C62.2747 99.7465 61.3043 99.4983 60.6494 99.4651C59.9289 99.4287 58.3918 97.691 56.7144 95.0166C48.5155 81.7869 36.6944 78.4669 21.6479 85.0101C13.147 88.6971 12.0777 91.1663 15.8443 98.3951ZM34.0104 92.4079C38.2422 91.9579 41.4407 93.3812 45.0108 97.3465C46.6709 99.2232 48.073 101.02 48.053 101.351C48.0009 102.212 43.439 103.774 40.0011 104.132C36.0968 104.598 32.2754 102.612 28.7868 98.3854L25.8516 94.7842L28.4781 93.7218C29.9551 93.1989 32.488 92.5966 34.0104 92.4079ZM51.1524 251.904C53.442 243.388 57.5121 238.016 63.9225 235.219C66.7575 233.968 75.5271 232.353 78.5399 232.505C80.5047 232.605 80.5301 233.27 78.7791 240.486C76.7514 249.015 72.9394 254.466 67.0489 257.356C62.9213 259.338 56.8651 260.626 52.7389 260.417C49.7916 260.268 49.6032 260.126 49.6954 258.603C49.7516 257.676 50.3945 254.654 51.1524 251.904ZM153.469 121.289C158.029 118.664 162.622 118.764 167.505 121.667C169.344 122.756 170.852 123.894 170.832 124.225C170.775 125.152 165.893 128.756 163.54 129.633C159.24 131.209 155.347 130.414 149.772 127.012C147.748 125.714 147.687 125.645 148.876 124.443C149.506 123.811 151.628 122.391 153.469 121.289ZM162.454 66.233C162.873 64.727 163.289 63.2873 163.494 63.1648C164.189 62.5359 171.917 66.1803 175.44 68.7488C182.798 74.1672 185.053 80.3236 183.778 91.6135C183.353 95.3768 182.899 98.541 182.756 98.733C182.339 99.1103 175.995 96.4656 172.694 94.5723C169.335 92.5433 164.757 87.863 163.542 85.1456C161.231 79.916 160.808 72.7898 162.454 66.233ZM271.41 73.2688C272.308 71.4551 273.963 69.0819 275.083 67.9433C277.262 65.5967 283.957 61.3536 287.386 60.0661L289.669 59.252L290.569 62.8167C291.047 64.7 291.449 68.9036 291.391 72.0215C291.357 80.1869 289.9 83.6324 284.413 88.5342C280.382 92.1816 272.087 96.8086 271.222 95.9017C270.303 94.7928 269.13 85.9687 269.403 81.4673C269.57 77.6246 270.009 75.7876 271.41 73.2688Z" fill="#0B2E10"/>
<path d="M43.6101 17.9062C44.933 27.4498 45.5144 28.672 49.1083 28.8538C51.4607 28.9728 53.2851 28.071 54.3693 26.4028C55.0254 25.3094 54.904 22.9838 53.9105 15.5775C52.517 5.03633 52.833 3.06421 55.8002 1.69008C58.498 0.434838 60.0583 0.646296 61.9759 2.53257C63.4029 3.86387 63.8296 5.47593 65.1485 15.0856C69.3985 46.6464 77.1665 76.397 88.207 104.06C96.9204 125.773 110.551 150.718 125.091 171.467C141.68 195.169 164.851 220.596 187.544 239.835C204.935 254.632 228.446 271.195 232.366 271.394C235.045 271.529 237.11 269.91 237.931 267.169C240.688 257.368 243.54 245.981 243.66 243.999C243.92 239.704 238.972 237.002 235.406 239.605C234.239 240.474 233.531 242.426 231.877 249.168C230.674 253.879 229.719 257.741 229.711 257.873C229.687 258.269 223.143 253.763 213.047 246.228C191.845 230.51 176.517 216.282 158.114 195.47C129.098 162.657 109.316 129.979 94.3601 90.123L91.6436 83.0272L97.8781 72.0766L104.112 61.1259L109.563 59.8774C129.698 55.329 143.785 43.5163 148.359 27.5115C150.453 19.9963 150.717 5.89403 148.848 -2.21914C146.767 -11.1384 146.047 -12.2351 142.338 -12.6878C137 -13.2891 124.798 -9.86374 115.86 -5.14667C110.648 -2.4281 103.603 3.51126 100.599 7.66689C95.0137 15.4694 92.1811 26.5258 92.7839 38.2199C93.0053 42.141 93.6 47.4727 94.1588 50.1518L95.1776 54.9748L91.2009 62.1959L87.2242 69.4171L84.1957 57.7329C80.4324 43.0294 77.6213 28.8379 75.3876 12.6875C73.3846 -1.86073 72.4671 -4.02776 67.2729 -7.00754C61.2532 -10.4267 52.6824 -9.60103 47.4974 -5.15808C42.3819 -0.777879 41.5871 3.6883 43.6101 17.9062ZM104.581 24.1708C107.105 14.9543 113.577 7.66057 123.291 3.1153C127.943 0.964869 137.304 -2.07404 137.729 -1.52237C138.653 -0.547862 139.504 7.05 139.459 13.2108C139.348 25.8629 136.367 32.8693 128.359 39.5552C123.533 43.4862 114.889 47.6879 108.239 49.2734L104.781 50.0926L104.059 44.6882C103.651 41.6854 103.247 38.6165 103.16 37.8832C102.756 34.8143 103.41 28.3529 104.581 24.1708Z" fill="#0B2E10"/>
</svg>
